TITLE ""
FILE "TOEIC LR Kinnojyukugo_02.mp3" MP3
  TRACK 01 AUDIO
    TITLE "TOEIC LR Kinnojyukugo_02_001"
    INDEX 01 00:00:00
  TRACK 02 AUDIO
    TITLE "TOEIC LR Kinnojyukugo_02_002"
    INDEX 01 00:00:12
  TRACK 03 AUDIO
    TITLE "TOEIC LR Kinnojyukugo_02_003"
    INDEX 01 00:01:57
  TRACK 04 AUDIO
    TITLE "TOEIC LR Kinnojyukugo_02_004"
    INDEX 01 00:02:23
  TRACK 05 AUDIO
    TITLE "TOEIC LR Kinnojyukugo_02_005"
    INDEX 01 00:03:36
  TRACK 06 AUDIO
    TITLE "TOEIC LR Kinnojyukugo_02_006"
    INDEX 01 00:03:75
  TRACK 07 AUDIO
    TITLE "TOEIC LR Kinnojyukugo_02_007"
    INDEX 01 00:07:06
  TRACK 08 AUDIO
    TITLE "TOEIC LR Kinnojyukugo_02_008"
    INDEX 01 00:08:18
  TRACK 09 AUDIO
    TITLE "TOEIC LR Kinnojyukugo_02_009"
    INDEX 01 00:08:55
  TRACK 10 AUDIO
    TITLE "TOEIC LR Kinnojyukugo_02_010"
    INDEX 01 00:11:22
  TRACK 11 AUDIO
    TITLE "TOEIC LR Kinnojyukugo_02_011"
    INDEX 01 00:12:53
  TRACK 12 AUDIO
    TITLE "TOEIC LR Kinnojyukugo_02_012"
    INDEX 01 00:13:29
  TRACK 13 AUDIO
    TITLE "TOEIC LR Kinnojyukugo_02_013"
    INDEX 01 00:15:71
  TRACK 14 AUDIO
    TITLE "TOEIC LR Kinnojyukugo_02_014"
    INDEX 01 00:17:26
  TRACK 15 AUDIO
    TITLE "TOEIC LR Kinnojyukugo_02_015"
    INDEX 01 00:18:24
  TRACK 16 AUDIO
    TITLE "TOEIC LR Kinnojyukugo_02_016"
    INDEX 01 00:19:74
  TRACK 17 AUDIO
    TITLE "TOEIC LR Kinnojyukugo_02_017"
    INDEX 01 00:20:35
  TRACK 18 AUDIO
    TITLE "TOEIC LR Kinnojyukugo_02_018"
    INDEX 01 00:23:33
  TRACK 19 AUDIO
    TITLE "TOEIC LR Kinnojyukugo_02_019"
    INDEX 01 00:23:72
  TRACK 20 AUDIO
    TITLE "TOEIC LR Kinnojyukugo_02_020"
    INDEX 01 00:28:30
  TRACK 21 AUDIO
    TITLE "TOEIC LR Kinnojyukugo_02_021"
    INDEX 01 00:29:67
  TRACK 22 AUDIO
    TITLE "TOEIC LR Kinnojyukugo_02_022"
    INDEX 01 00:30:29
  TRACK 23 AUDIO
    TITLE "TOEIC LR Kinnojyukugo_02_023"
    INDEX 01 00:33:74
  TRACK 24 AUDIO
    TITLE "TOEIC LR Kinnojyukugo_02_024"
    INDEX 01 00:35:46
  TRACK 25 AUDIO
    TITLE "TOEIC LR Kinnojyukugo_02_025"
    INDEX 01 00:36:22
  TRACK 26 AUDIO
    TITLE "TOEIC LR Kinnojyukugo_02_026"
    INDEX 01 00:39:67
  TRACK 27 AUDIO
    TITLE "TOEIC LR Kinnojyukugo_02_027"
    INDEX 01 00:41:39
  TRACK 28 AUDIO
    TITLE "TOEIC LR Kinnojyukugo_02_028"
    INDEX 01 00:42:40
  TRACK 29 AUDIO
    TITLE "TOEIC LR Kinnojyukugo_02_029"
    INDEX 01 00:43:47
  TRACK 30 AUDIO
    TITLE "TOEIC LR Kinnojyukugo_02_030"
    INDEX 01 00:44:10
  TRACK 31 AUDIO
    TITLE "TOEIC LR Kinnojyukugo_02_031"
    INDEX 01 00:48:05
  TRACK 32 AUDIO
    TITLE "TOEIC LR Kinnojyukugo_02_032"
    INDEX 01 00:48:49
  TRACK 33 AUDIO
    TITLE "TOEIC LR Kinnojyukugo_02_033"
    INDEX 01 00:51:59
  TRACK 34 AUDIO
    TITLE "TOEIC LR Kinnojyukugo_02_034"
    INDEX 01 00:53:38
  TRACK 35 AUDIO
    TITLE "TOEIC LR Kinnojyukugo_02_035"
    INDEX 01 00:54:02
  TRACK 36 AUDIO
    TITLE "TOEIC LR Kinnojyukugo_02_036"
    INDEX 01 00:57:02
  TRACK 37 AUDIO
    TITLE "TOEIC LR Kinnojyukugo_02_037"
    INDEX 01 00:59:01
  TRACK 38 AUDIO
    TITLE "TOEIC LR Kinnojyukugo_02_038"
    INDEX 01 00:59:52
  TRACK 39 AUDIO
    TITLE "TOEIC LR Kinnojyukugo_02_039"
    INDEX 01 01:02:56
  TRACK 40 AUDIO
    TITLE "TOEIC LR Kinnojyukugo_02_040"
    INDEX 01 01:04:51
  TRACK 41 AUDIO
    TITLE "TOEIC LR Kinnojyukugo_02_041"
    INDEX 01 01:05:53
  TRACK 42 AUDIO
    TITLE "TOEIC LR Kinnojyukugo_02_042"
    INDEX 01 01:06:72
  TRACK 43 AUDIO
    TITLE "TOEIC LR Kinnojyukugo_02_043"
    INDEX 01 01:07:36
  TRACK 44 AUDIO
    TITLE "TOEIC LR Kinnojyukugo_02_044"
    INDEX 01 01:08:61
  TRACK 45 AUDIO
    TITLE "TOEIC LR Kinnojyukugo_02_045"
    INDEX 01 01:09:27
  TRACK 46 AUDIO
    TITLE "TOEIC LR Kinnojyukugo_02_046"
    INDEX 01 01:12:10
  TRACK 47 AUDIO
    TITLE "TOEIC LR Kinnojyukugo_02_047"
    INDEX 01 01:13:68
  TRACK 48 AUDIO
    TITLE "TOEIC LR Kinnojyukugo_02_048"
    INDEX 01 01:14:32
  TRACK 49 AUDIO
    TITLE "TOEIC LR Kinnojyukugo_02_049"
    INDEX 01 01:16:60
  TRACK 50 AUDIO
    TITLE "TOEIC LR Kinnojyukugo_02_050"
    INDEX 01 01:18:26
  TRACK 51 AUDIO
    TITLE "TOEIC LR Kinnojyukugo_02_051"
    INDEX 01 01:18:75
  TRACK 52 AUDIO
    TITLE "TOEIC LR Kinnojyukugo_02_052"
    INDEX 01 01:21:24
  TRACK 53 AUDIO
    TITLE "TOEIC LR Kinnojyukugo_02_053"
    INDEX 01 01:22:69
  TRACK 54 AUDIO
    TITLE "TOEIC LR Kinnojyukugo_02_054"
    INDEX 01 01:23:66
  TRACK 55 AUDIO
    TITLE "TOEIC LR Kinnojyukugo_02_055"
    INDEX 01 01:25:26
  TRACK 56 AUDIO
    TITLE "TOEIC LR Kinnojyukugo_02_056"
    INDEX 01 01:25:65
  TRACK 57 AUDIO
    TITLE "TOEIC LR Kinnojyukugo_02_057"
    INDEX 01 01:27:70
  TRACK 58 AUDIO
    TITLE "TOEIC LR Kinnojyukugo_02_058"
    INDEX 01 01:28:34
  TRACK 59 AUDIO
    TITLE "TOEIC LR Kinnojyukugo_02_059"
    INDEX 01 01:33:75
  TRACK 60 AUDIO
    TITLE "TOEIC LR Kinnojyukugo_02_060"
    INDEX 01 01:36:12
  TRACK 61 AUDIO
    TITLE "TOEIC LR Kinnojyukugo_02_061"
    INDEX 01 01:36:51
  TRACK 62 AUDIO
    TITLE "TOEIC LR Kinnojyukugo_02_062"
    INDEX 01 01:40:30
  TRACK 63 AUDIO
    TITLE "TOEIC LR Kinnojyukugo_02_063"
    INDEX 01 01:42:72
  TRACK 64 AUDIO
    TITLE "TOEIC LR Kinnojyukugo_02_064"
    INDEX 01 01:43:52
  TRACK 65 AUDIO
    TITLE "TOEIC LR Kinnojyukugo_02_065"
    INDEX 01 01:47:28
  TRACK 66 AUDIO
    TITLE "TOEIC LR Kinnojyukugo_02_066"
    INDEX 01 01:49:68
  TRACK 67 AUDIO
    TITLE "TOEIC LR Kinnojyukugo_02_067"
    INDEX 01 01:50:69
  TRACK 68 AUDIO
    TITLE "TOEIC LR Kinnojyukugo_02_068"
    INDEX 01 01:52:58
  TRACK 69 AUDIO
    TITLE "TOEIC LR Kinnojyukugo_02_069"
    INDEX 01 01:53:21
  TRACK 70 AUDIO
    TITLE "TOEIC LR Kinnojyukugo_02_070"
    INDEX 01 01:55:27
  TRACK 71 AUDIO
    TITLE "TOEIC LR Kinnojyukugo_02_071"
    INDEX 01 01:55:64
  TRACK 72 AUDIO
    TITLE "TOEIC LR Kinnojyukugo_02_072"
    INDEX 01 01:59:05
  TRACK 73 AUDIO
    TITLE "TOEIC LR Kinnojyukugo_02_073"
    INDEX 01 02:01:16
  TRACK 74 AUDIO
    TITLE "TOEIC LR Kinnojyukugo_02_074"
    INDEX 01 02:01:55
  TRACK 75 AUDIO
    TITLE "TOEIC LR Kinnojyukugo_02_075"
    INDEX 01 02:04:56
  TRACK 76 AUDIO
    TITLE "TOEIC LR Kinnojyukugo_02_076"
    INDEX 01 02:06:31
  TRACK 77 AUDIO
    TITLE "TOEIC LR Kinnojyukugo_02_077"
    INDEX 01 02:07:07
  TRACK 78 AUDIO
    TITLE "TOEIC LR Kinnojyukugo_02_078"
    INDEX 01 02:10:07
  TRACK 79 AUDIO
    TITLE "TOEIC LR Kinnojyukugo_02_079"
    INDEX 01 02:11:60
  TRACK 80 AUDIO
    TITLE "TOEIC LR Kinnojyukugo_02_080"
    INDEX 01 02:12:59
  TRACK 81 AUDIO
    TITLE "TOEIC LR Kinnojyukugo_02_081"
    INDEX 01 02:14:03
  TRACK 82 AUDIO
    TITLE "TOEIC LR Kinnojyukugo_02_082"
    INDEX 01 02:14:40
  TRACK 83 AUDIO
    TITLE "TOEIC LR Kinnojyukugo_02_083"
    INDEX 01 02:17:45
  TRACK 84 AUDIO
    TITLE "TOEIC LR Kinnojyukugo_02_084"
    INDEX 01 02:18:09
  TRACK 85 AUDIO
    TITLE "TOEIC LR Kinnojyukugo_02_085"
    INDEX 01 02:20:25
  TRACK 86 AUDIO
    TITLE "TOEIC LR Kinnojyukugo_02_086"
    INDEX 01 02:21:70
  TRACK 87 AUDIO
    TITLE "TOEIC LR Kinnojyukugo_02_087"
    INDEX 01 02:22:32
  TRACK 88 AUDIO
    TITLE "TOEIC LR Kinnojyukugo_02_088"
    INDEX 01 02:24:58
  TRACK 89 AUDIO
    TITLE "TOEIC LR Kinnojyukugo_02_089"
    INDEX 01 02:25:75
  TRACK 90 AUDIO
    TITLE "TOEIC LR Kinnojyukugo_02_090"
    INDEX 01 02:26:51
  TRACK 91 AUDIO
    TITLE "TOEIC LR Kinnojyukugo_02_091"
    INDEX 01 02:29:03
  TRACK 92 AUDIO
    TITLE "TOEIC LR Kinnojyukugo_02_092"
    INDEX 01 02:30:22
  TRACK 93 AUDIO
    TITLE "TOEIC LR Kinnojyukugo_02_093"
    INDEX 01 02:31:23
  TRACK 94 AUDIO
    TITLE "TOEIC LR Kinnojyukugo_02_094"
    INDEX 01 02:34:16
  TRACK 95 AUDIO
    TITLE "TOEIC LR Kinnojyukugo_02_095"
    INDEX 01 02:34:53
  TRACK 96 AUDIO
    TITLE "TOEIC LR Kinnojyukugo_02_096"
    INDEX 01 02:36:71
  TRACK 97 AUDIO
    TITLE "TOEIC LR Kinnojyukugo_02_097"
    INDEX 01 02:37:35
  TRACK 98 AUDIO
    TITLE "TOEIC LR Kinnojyukugo_02_098"
    INDEX 01 02:40:55
  TRACK 99 AUDIO
    TITLE "TOEIC LR Kinnojyukugo_02_099"
    INDEX 01 02:42:33
  TRACK 100 AUDIO
    TITLE "TOEIC LR Kinnojyukugo_02_100"
    INDEX 01 02:42:70
  TRACK 101 AUDIO
    TITLE "TOEIC LR Kinnojyukugo_02_101"
    INDEX 01 02:45:55
  TRACK 102 AUDIO
    TITLE "TOEIC LR Kinnojyukugo_02_102"
    INDEX 01 02:46:66
  TRACK 103 AUDIO
    TITLE "TOEIC LR Kinnojyukugo_02_103"
    INDEX 01 02:47:40
  TRACK 104 AUDIO
    TITLE "TOEIC LR Kinnojyukugo_02_104"
    INDEX 01 02:50:24
  TRACK 105 AUDIO
    TITLE "TOEIC LR Kinnojyukugo_02_105"
    INDEX 01 02:51:36
  TRACK 106 AUDIO
    TITLE "TOEIC LR Kinnojyukugo_02_106"
    INDEX 01 02:52:35
  TRACK 107 AUDIO
    TITLE "TOEIC LR Kinnojyukugo_02_107"
    INDEX 01 02:53:56
  TRACK 108 AUDIO
    TITLE "TOEIC LR Kinnojyukugo_02_108"
    INDEX 01 02:54:16
  TRACK 109 AUDIO
    TITLE "TOEIC LR Kinnojyukugo_02_109"
    INDEX 01 02:55:39
  TRACK 110 AUDIO
    TITLE "TOEIC LR Kinnojyukugo_02_110"
    INDEX 01 02:56:01
  TRACK 111 AUDIO
    TITLE "TOEIC LR Kinnojyukugo_02_111"
    INDEX 01 02:58:16
  TRACK 112 AUDIO
    TITLE "TOEIC LR Kinnojyukugo_02_112"
    INDEX 01 02:59:63
  TRACK 113 AUDIO
    TITLE "TOEIC LR Kinnojyukugo_02_113"
    INDEX 01 03:00:25
  TRACK 114 AUDIO
    TITLE "TOEIC LR Kinnojyukugo_02_114"
    INDEX 01 03:02:18
  TRACK 115 AUDIO
    TITLE "TOEIC LR Kinnojyukugo_02_115"
    INDEX 01 03:03:64
  TRACK 116 AUDIO
    TITLE "TOEIC LR Kinnojyukugo_02_116"
    INDEX 01 03:04:40
  TRACK 117 AUDIO
    TITLE "TOEIC LR Kinnojyukugo_02_117"
    INDEX 01 03:06:31
  TRACK 118 AUDIO
    TITLE "TOEIC LR Kinnojyukugo_02_118"
    INDEX 01 03:08:05
  TRACK 119 AUDIO
    TITLE "TOEIC LR Kinnojyukugo_02_119"
    INDEX 01 03:09:06
  TRACK 120 AUDIO
    TITLE "TOEIC LR Kinnojyukugo_02_120"
    INDEX 01 03:10:58
  TRACK 121 AUDIO
    TITLE "TOEIC LR Kinnojyukugo_02_121"
    INDEX 01 03:11:21
  TRACK 122 AUDIO
    TITLE "TOEIC LR Kinnojyukugo_02_122"
    INDEX 01 03:12:73
  TRACK 123 AUDIO
    TITLE "TOEIC LR Kinnojyukugo_02_123"
    INDEX 01 03:13:39
  TRACK 124 AUDIO
    TITLE "TOEIC LR Kinnojyukugo_02_124"
    INDEX 01 03:15:28
  TRACK 125 AUDIO
    TITLE "TOEIC LR Kinnojyukugo_02_125"
    INDEX 01 03:17:58
  TRACK 126 AUDIO
    TITLE "TOEIC LR Kinnojyukugo_02_126"
    INDEX 01 03:18:25
  TRACK 127 AUDIO
    TITLE "TOEIC LR Kinnojyukugo_02_127"
    INDEX 01 03:19:73
  TRACK 128 AUDIO
    TITLE "TOEIC LR Kinnojyukugo_02_128"
    INDEX 01 03:22:01
  TRACK 129 AUDIO
    TITLE "TOEIC LR Kinnojyukugo_02_129"
    INDEX 01 03:22:54
  TRACK 130 AUDIO
    TITLE "TOEIC LR Kinnojyukugo_02_130"
    INDEX 01 03:24:27
  TRACK 131 AUDIO
    TITLE "TOEIC LR Kinnojyukugo_02_131"
    INDEX 01 03:26:32
  TRACK 132 AUDIO
    TITLE "TOEIC LR Kinnojyukugo_02_132"
    INDEX 01 03:27:31
  TRACK 133 AUDIO
    TITLE "TOEIC LR Kinnojyukugo_02_133"
    INDEX 01 03:29:34
  TRACK 134 AUDIO
    TITLE "TOEIC LR Kinnojyukugo_02_134"
    INDEX 01 03:29:68
  TRACK 135 AUDIO
    TITLE "TOEIC LR Kinnojyukugo_02_135"
    INDEX 01 03:32:46
  TRACK 136 AUDIO
    TITLE "TOEIC LR Kinnojyukugo_02_136"
    INDEX 01 03:33:10
  TRACK 137 AUDIO
    TITLE "TOEIC LR Kinnojyukugo_02_137"
    INDEX 01 03:37:08
  TRACK 138 AUDIO
    TITLE "TOEIC LR Kinnojyukugo_02_138"
    INDEX 01 03:38:51
  TRACK 139 AUDIO
    TITLE "TOEIC LR Kinnojyukugo_02_139"
    INDEX 01 03:39:15
  TRACK 140 AUDIO
    TITLE "TOEIC LR Kinnojyukugo_02_140"
    INDEX 01 03:42:25
  TRACK 141 AUDIO
    TITLE "TOEIC LR Kinnojyukugo_02_141"
    INDEX 01 03:43:38
  TRACK 142 AUDIO
    TITLE "TOEIC LR Kinnojyukugo_02_142"
    INDEX 01 03:44:16
  TRACK 143 AUDIO
    TITLE "TOEIC LR Kinnojyukugo_02_143"
    INDEX 01 03:47:26
  TRACK 144 AUDIO
    TITLE "TOEIC LR Kinnojyukugo_02_144"
    INDEX 01 03:48:39
  TRACK 145 AUDIO
    TITLE "TOEIC LR Kinnojyukugo_02_145"
    INDEX 01 03:49:41
  TRACK 146 AUDIO
    TITLE "TOEIC LR Kinnojyukugo_02_146"
    INDEX 01 03:51:06
  TRACK 147 AUDIO
    TITLE "TOEIC LR Kinnojyukugo_02_147"
    INDEX 01 03:51:46
  TRACK 148 AUDIO
    TITLE "TOEIC LR Kinnojyukugo_02_148"
    INDEX 01 03:53:19
  TRACK 149 AUDIO
    TITLE "TOEIC LR Kinnojyukugo_02_149"
    INDEX 01 03:53:58
  TRACK 150 AUDIO
    TITLE "TOEIC LR Kinnojyukugo_02_150"
    INDEX 01 03:57:27
  TRACK 151 AUDIO
    TITLE "TOEIC LR Kinnojyukugo_02_151"
    INDEX 01 03:58:73
  TRACK 152 AUDIO
    TITLE "TOEIC LR Kinnojyukugo_02_152"
    INDEX 01 03:59:37
  TRACK 153 AUDIO
    TITLE "TOEIC LR Kinnojyukugo_02_153"
    INDEX 01 04:03:23
  TRACK 154 AUDIO
    TITLE "TOEIC LR Kinnojyukugo_02_154"
    INDEX 01 04:04:72
  TRACK 155 AUDIO
    TITLE "TOEIC LR Kinnojyukugo_02_155"
    INDEX 01 04:05:48
  TRACK 156 AUDIO
    TITLE "TOEIC LR Kinnojyukugo_02_156"
    INDEX 01 04:09:34
  TRACK 157 AUDIO
    TITLE "TOEIC LR Kinnojyukugo_02_157"
    INDEX 01 04:11:07
  TRACK 158 AUDIO
    TITLE "TOEIC LR Kinnojyukugo_02_158"
    INDEX 01 04:12:07
  TRACK 159 AUDIO
    TITLE "TOEIC LR Kinnojyukugo_02_159"
    INDEX 01 04:13:22
  TRACK 160 AUDIO
    TITLE "TOEIC LR Kinnojyukugo_02_160"
    INDEX 01 04:13:61
  TRACK 161 AUDIO
    TITLE "TOEIC LR Kinnojyukugo_02_161"
    INDEX 01 04:15:05
  TRACK 162 AUDIO
    TITLE "TOEIC LR Kinnojyukugo_02_162"
    INDEX 01 04:15:44
  TRACK 163 AUDIO
    TITLE "TOEIC LR Kinnojyukugo_02_163"
    INDEX 01 04:19:36
  TRACK 164 AUDIO
    TITLE "TOEIC LR Kinnojyukugo_02_164"
    INDEX 01 04:21:33
  TRACK 165 AUDIO
    TITLE "TOEIC LR Kinnojyukugo_02_165"
    INDEX 01 04:21:70
  TRACK 166 AUDIO
    TITLE "TOEIC LR Kinnojyukugo_02_166"
    INDEX 01 04:25:23
  TRACK 167 AUDIO
    TITLE "TOEIC LR Kinnojyukugo_02_167"
    INDEX 01 04:27:24
  TRACK 168 AUDIO
    TITLE "TOEIC LR Kinnojyukugo_02_168"
    INDEX 01 04:27:75
  TRACK 169 AUDIO
    TITLE "TOEIC LR Kinnojyukugo_02_169"
    INDEX 01 04:31:28
  TRACK 170 AUDIO
    TITLE "TOEIC LR Kinnojyukugo_02_170"
    INDEX 01 04:33:28
  TRACK 171 AUDIO
    TITLE "TOEIC LR Kinnojyukugo_02_171"
    INDEX 01 04:34:30
  TRACK 172 AUDIO
    TITLE "TOEIC LR Kinnojyukugo_02_172"
    INDEX 01 04:35:41
  TRACK 173 AUDIO
    TITLE "TOEIC LR Kinnojyukugo_02_173"
    INDEX 01 04:36:01
  TRACK 174 AUDIO
    TITLE "TOEIC LR Kinnojyukugo_02_174"
    INDEX 01 04:37:22
  TRACK 175 AUDIO
    TITLE "TOEIC LR Kinnojyukugo_02_175"
    INDEX 01 04:37:59
  TRACK 176 AUDIO
    TITLE "TOEIC LR Kinnojyukugo_02_176"
    INDEX 01 04:41:57
  TRACK 177 AUDIO
    TITLE "TOEIC LR Kinnojyukugo_02_177"
    INDEX 01 04:44:42
  TRACK 178 AUDIO
    TITLE "TOEIC LR Kinnojyukugo_02_178"
    INDEX 01 04:45:08
  TRACK 179 AUDIO
    TITLE "TOEIC LR Kinnojyukugo_02_179"
    INDEX 01 04:48:36
  TRACK 180 AUDIO
    TITLE "TOEIC LR Kinnojyukugo_02_180"
    INDEX 01 04:50:64
  TRACK 181 AUDIO
    TITLE "TOEIC LR Kinnojyukugo_02_181"
    INDEX 01 04:51:40
  TRACK 182 AUDIO
    TITLE "TOEIC LR Kinnojyukugo_02_182"
    INDEX 01 04:54:68
  TRACK 183 AUDIO
    TITLE "TOEIC LR Kinnojyukugo_02_183"
    INDEX 01 04:57:21
  TRACK 184 AUDIO
    TITLE "TOEIC LR Kinnojyukugo_02_184"
    INDEX 01 04:58:22
  TRACK 185 AUDIO
    TITLE "TOEIC LR Kinnojyukugo_02_185"
    INDEX 01 04:59:51
  TRACK 186 AUDIO
    TITLE "TOEIC LR Kinnojyukugo_02_186"
    INDEX 01 05:00:13
  TRACK 187 AUDIO
    TITLE "TOEIC LR Kinnojyukugo_02_187"
    INDEX 01 05:01:52
  TRACK 188 AUDIO
    TITLE "TOEIC LR Kinnojyukugo_02_188"
    INDEX 01 05:02:18
  TRACK 189 AUDIO
    TITLE "TOEIC LR Kinnojyukugo_02_189"
    INDEX 01 05:04:48
  TRACK 190 AUDIO
    TITLE "TOEIC LR Kinnojyukugo_02_190"
    INDEX 01 05:07:57
  TRACK 191 AUDIO
    TITLE "TOEIC LR Kinnojyukugo_02_191"
    INDEX 01 05:08:19
  TRACK 192 AUDIO
    TITLE "TOEIC LR Kinnojyukugo_02_192"
    INDEX 01 05:10:51
  TRACK 193 AUDIO
    TITLE "TOEIC LR Kinnojyukugo_02_193"
    INDEX 01 05:12:64
  TRACK 194 AUDIO
    TITLE "TOEIC LR Kinnojyukugo_02_194"
    INDEX 01 05:13:40
  TRACK 195 AUDIO
    TITLE "TOEIC LR Kinnojyukugo_02_195"
    INDEX 01 05:15:70
  TRACK 196 AUDIO
    TITLE "TOEIC LR Kinnojyukugo_02_196"
    INDEX 01 05:18:06
  TRACK 197 AUDIO
    TITLE "TOEIC LR Kinnojyukugo_02_197"
    INDEX 01 05:19:05
  TRACK 198 AUDIO
    TITLE "TOEIC LR Kinnojyukugo_02_198"
    INDEX 01 05:20:55
  TRACK 199 AUDIO
    TITLE "TOEIC LR Kinnojyukugo_02_199"
    INDEX 01 05:21:18
  TRACK 200 AUDIO
    TITLE "TOEIC LR Kinnojyukugo_02_200"
    INDEX 01 05:24:36
  TRACK 201 AUDIO
    TITLE "TOEIC LR Kinnojyukugo_02_201"
    INDEX 01 05:24:75
  TRACK 202 AUDIO
    TITLE "TOEIC LR Kinnojyukugo_02_202"
    INDEX 01 05:28:06
  TRACK 203 AUDIO
    TITLE "TOEIC LR Kinnojyukugo_02_203"
    INDEX 01 05:30:05
  TRACK 204 AUDIO
    TITLE "TOEIC LR Kinnojyukugo_02_204"
    INDEX 01 05:30:44
  TRACK 205 AUDIO
    TITLE "TOEIC LR Kinnojyukugo_02_205"
    INDEX 01 05:32:68
  TRACK 206 AUDIO
    TITLE "TOEIC LR Kinnojyukugo_02_206"
    INDEX 01 05:35:22
  TRACK 207 AUDIO
    TITLE "TOEIC LR Kinnojyukugo_02_207"
    INDEX 01 05:35:69
  TRACK 208 AUDIO
    TITLE "TOEIC LR Kinnojyukugo_02_208"
    INDEX 01 05:38:18
  TRACK 209 AUDIO
    TITLE "TOEIC LR Kinnojyukugo_02_209"
    INDEX 01 05:40:44
  TRACK 210 AUDIO
    TITLE "TOEIC LR Kinnojyukugo_02_210"
    INDEX 01 05:41:44
  TRACK 211 AUDIO
    TITLE "TOEIC LR Kinnojyukugo_02_211"
    INDEX 01 05:45:30
  TRACK 212 AUDIO
    TITLE "TOEIC LR Kinnojyukugo_02_212"
    INDEX 01 05:46:02
  TRACK 213 AUDIO
    TITLE "TOEIC LR Kinnojyukugo_02_213"
    INDEX 01 05:48:13
  TRACK 214 AUDIO
    TITLE "TOEIC LR Kinnojyukugo_02_214"
    INDEX 01 05:48:50
  TRACK 215 AUDIO
    TITLE "TOEIC LR Kinnojyukugo_02_215"
    INDEX 01 05:52:04
  TRACK 216 AUDIO
    TITLE "TOEIC LR Kinnojyukugo_02_216"
    INDEX 01 05:54:66
  TRACK 217 AUDIO
    TITLE "TOEIC LR Kinnojyukugo_02_217"
    INDEX 01 05:55:30
  TRACK 218 AUDIO
    TITLE "TOEIC LR Kinnojyukugo_02_218"
    INDEX 01 05:57:74
  TRACK 219 AUDIO
    TITLE "TOEIC LR Kinnojyukugo_02_219"
    INDEX 01 06:00:49
  TRACK 220 AUDIO
    TITLE "TOEIC LR Kinnojyukugo_02_220"
    INDEX 01 06:01:33
  TRACK 221 AUDIO
    TITLE "TOEIC LR Kinnojyukugo_02_221"
    INDEX 01 06:04:02
  TRACK 222 AUDIO
    TITLE "TOEIC LR Kinnojyukugo_02_222"
    INDEX 01 06:06:54
  TRACK 223 AUDIO
    TITLE "TOEIC LR Kinnojyukugo_02_223"
    INDEX 01 06:07:61
  TRACK 224 AUDIO
    TITLE "TOEIC LR Kinnojyukugo_02_224"
    INDEX 01 06:09:05
  TRACK 225 AUDIO
    TITLE "TOEIC LR Kinnojyukugo_02_225"
    INDEX 01 06:09:44
  TRACK 226 AUDIO
    TITLE "TOEIC LR Kinnojyukugo_02_226"
    INDEX 01 06:12:13
  TRACK 227 AUDIO
    TITLE "TOEIC LR Kinnojyukugo_02_227"
    INDEX 01 06:12:50
  TRACK 228 AUDIO
    TITLE "TOEIC LR Kinnojyukugo_02_228"
    INDEX 01 06:14:63
  TRACK 229 AUDIO
    TITLE "TOEIC LR Kinnojyukugo_02_229"
    INDEX 01 06:18:04
  TRACK 230 AUDIO
    TITLE "TOEIC LR Kinnojyukugo_02_230"
    INDEX 01 06:18:43
  TRACK 231 AUDIO
    TITLE "TOEIC LR Kinnojyukugo_02_231"
    INDEX 01 06:20:44
  TRACK 232 AUDIO
    TITLE "TOEIC LR Kinnojyukugo_02_232"
    INDEX 01 06:24:26
  TRACK 233 AUDIO
    TITLE "TOEIC LR Kinnojyukugo_02_233"
    INDEX 01 06:24:75
  TRACK 234 AUDIO
    TITLE "TOEIC LR Kinnojyukugo_02_234"
    INDEX 01 06:26:72
  TRACK 235 AUDIO
    TITLE "TOEIC LR Kinnojyukugo_02_235"
    INDEX 01 06:30:58
  TRACK 236 AUDIO
    TITLE "TOEIC LR Kinnojyukugo_02_236"
    INDEX 01 06:31:57
  TRACK 237 AUDIO
    TITLE "TOEIC LR Kinnojyukugo_02_237"
    INDEX 01 06:33:37
  TRACK 238 AUDIO
    TITLE "TOEIC LR Kinnojyukugo_02_238"
    INDEX 01 06:34:01
  TRACK 239 AUDIO
    TITLE "TOEIC LR Kinnojyukugo_02_239"
    INDEX 01 06:35:24
  TRACK 240 AUDIO
    TITLE "TOEIC LR Kinnojyukugo_02_240"
    INDEX 01 06:35:67
  TRACK 241 AUDIO
    TITLE "TOEIC LR Kinnojyukugo_02_241"
    INDEX 01 06:39:29
  TRACK 242 AUDIO
    TITLE "TOEIC LR Kinnojyukugo_02_242"
    INDEX 01 06:41:11
  TRACK 243 AUDIO
    TITLE "TOEIC LR Kinnojyukugo_02_243"
    INDEX 01 06:41:48
  TRACK 244 AUDIO
    TITLE "TOEIC LR Kinnojyukugo_02_244"
    INDEX 01 06:44:23
  TRACK 245 AUDIO
    TITLE "TOEIC LR Kinnojyukugo_02_245"
    INDEX 01 06:46:59
  TRACK 246 AUDIO
    TITLE "TOEIC LR Kinnojyukugo_02_246"
    INDEX 01 06:47:33
  TRACK 247 AUDIO
    TITLE "TOEIC LR Kinnojyukugo_02_247"
    INDEX 01 06:50:08
  TRACK 248 AUDIO
    TITLE "TOEIC LR Kinnojyukugo_02_248"
    INDEX 01 06:52:44
  TRACK 249 AUDIO
    TITLE "TOEIC LR Kinnojyukugo_02_249"
    INDEX 01 06:53:43
  TRACK 250 AUDIO
    TITLE "TOEIC LR Kinnojyukugo_02_250"
    INDEX 01 06:55:17
  TRACK 251 AUDIO
    TITLE "TOEIC LR Kinnojyukugo_02_251"
    INDEX 01 06:55:56
  TRACK 252 AUDIO
    TITLE "TOEIC LR Kinnojyukugo_02_252"
    INDEX 01 06:56:65
  TRACK 253 AUDIO
    TITLE "TOEIC LR Kinnojyukugo_02_253"
    INDEX 01 06:57:27
  TRACK 254 AUDIO
    TITLE "TOEIC LR Kinnojyukugo_02_254"
    INDEX 01 07:02:07
  TRACK 255 AUDIO
    TITLE "TOEIC LR Kinnojyukugo_02_255"
    INDEX 01 07:03:16
  TRACK 256 AUDIO
    TITLE "TOEIC LR Kinnojyukugo_02_256"
    INDEX 01 07:03:57
  TRACK 257 AUDIO
    TITLE "TOEIC LR Kinnojyukugo_02_257"
    INDEX 01 07:08:45
  TRACK 258 AUDIO
    TITLE "TOEIC LR Kinnojyukugo_02_258"
    INDEX 01 07:10:06
  TRACK 259 AUDIO
    TITLE "TOEIC LR Kinnojyukugo_02_259"
    INDEX 01 07:10:57
  TRACK 260 AUDIO
    TITLE "TOEIC LR Kinnojyukugo_02_260"
    INDEX 01 07:15:43
  TRACK 261 AUDIO
    TITLE "TOEIC LR Kinnojyukugo_02_261"
    INDEX 01 07:17:09
  TRACK 262 AUDIO
    TITLE "TOEIC LR Kinnojyukugo_02_262"
    INDEX 01 07:18:06
  TRACK 263 AUDIO
    TITLE "TOEIC LR Kinnojyukugo_02_263"
    INDEX 01 07:20:15
  TRACK 264 AUDIO
    TITLE "TOEIC LR Kinnojyukugo_02_264"
    INDEX 01 07:20:54
  TRACK 265 AUDIO
    TITLE "TOEIC LR Kinnojyukugo_02_265"
    INDEX 01 07:22:18
  TRACK 266 AUDIO
    TITLE "TOEIC LR Kinnojyukugo_02_266"
    INDEX 01 07:22:57
  TRACK 267 AUDIO
    TITLE "TOEIC LR Kinnojyukugo_02_267"
    INDEX 01 07:28:55
  TRACK 268 AUDIO
    TITLE "TOEIC LR Kinnojyukugo_02_268"
    INDEX 01 07:30:17
  TRACK 269 AUDIO
    TITLE "TOEIC LR Kinnojyukugo_02_269"
    INDEX 01 07:30:56
  TRACK 270 AUDIO
    TITLE "TOEIC LR Kinnojyukugo_02_270"
    INDEX 01 07:34:60
  TRACK 271 AUDIO
    TITLE "TOEIC LR Kinnojyukugo_02_271"
    INDEX 01 07:36:63
  TRACK 272 AUDIO
    TITLE "TOEIC LR Kinnojyukugo_02_272"
    INDEX 01 07:37:39
  TRACK 273 AUDIO
    TITLE "TOEIC LR Kinnojyukugo_02_273"
    INDEX 01 07:41:42
  TRACK 274 AUDIO
    TITLE "TOEIC LR Kinnojyukugo_02_274"
    INDEX 01 07:43:45
  TRACK 275 AUDIO
    TITLE "TOEIC LR Kinnojyukugo_02_275"
    INDEX 01 07:44:41
  TRACK 276 AUDIO
    TITLE "TOEIC LR Kinnojyukugo_02_276"
    INDEX 01 07:45:71
  TRACK 277 AUDIO
    TITLE "TOEIC LR Kinnojyukugo_02_277"
    INDEX 01 07:46:38
  TRACK 278 AUDIO
    TITLE "TOEIC LR Kinnojyukugo_02_278"
    INDEX 01 07:49:14
  TRACK 279 AUDIO
    TITLE "TOEIC LR Kinnojyukugo_02_279"
    INDEX 01 07:49:54
  TRACK 280 AUDIO
    TITLE "TOEIC LR Kinnojyukugo_02_280"
    INDEX 01 07:52:01
  TRACK 281 AUDIO
    TITLE "TOEIC LR Kinnojyukugo_02_281"
    INDEX 01 07:53:67
  TRACK 282 AUDIO
    TITLE "TOEIC LR Kinnojyukugo_02_282"
    INDEX 01 07:54:33
  TRACK 283 AUDIO
    TITLE "TOEIC LR Kinnojyukugo_02_283"
    INDEX 01 07:56:44
  TRACK 284 AUDIO
    TITLE "TOEIC LR Kinnojyukugo_02_284"
    INDEX 01 07:58:55
  TRACK 285 AUDIO
    TITLE "TOEIC LR Kinnojyukugo_02_285"
    INDEX 01 07:59:30
  TRACK 286 AUDIO
    TITLE "TOEIC LR Kinnojyukugo_02_286"
    INDEX 01 08:01:41
  TRACK 287 AUDIO
    TITLE "TOEIC LR Kinnojyukugo_02_287"
    INDEX 01 08:03:52
  TRACK 288 AUDIO
    TITLE "TOEIC LR Kinnojyukugo_02_288"
    INDEX 01 08:04:53
  TRACK 289 AUDIO
    TITLE "TOEIC LR Kinnojyukugo_02_289"
    INDEX 01 08:06:30
  TRACK 290 AUDIO
    TITLE "TOEIC LR Kinnojyukugo_02_290"
    INDEX 01 08:06:68
  TRACK 291 AUDIO
    TITLE "TOEIC LR Kinnojyukugo_02_291"
    INDEX 01 08:10:15
  TRACK 292 AUDIO
    TITLE "TOEIC LR Kinnojyukugo_02_292"
    INDEX 01 08:10:54
  TRACK 293 AUDIO
    TITLE "TOEIC LR Kinnojyukugo_02_293"
    INDEX 01 08:13:48
  TRACK 294 AUDIO
    TITLE "TOEIC LR Kinnojyukugo_02_294"
    INDEX 01 08:16:35
  TRACK 295 AUDIO
    TITLE "TOEIC LR Kinnojyukugo_02_295"
    INDEX 01 08:16:74
  TRACK 296 AUDIO
    TITLE "TOEIC LR Kinnojyukugo_02_296"
    INDEX 01 08:19:02
  TRACK 297 AUDIO
    TITLE "TOEIC LR Kinnojyukugo_02_297"
    INDEX 01 08:21:07
  TRACK 298 AUDIO
    TITLE "TOEIC LR Kinnojyukugo_02_298"
    INDEX 01 08:21:57
  TRACK 299 AUDIO
    TITLE "TOEIC LR Kinnojyukugo_02_299"
    INDEX 01 08:23:60
  TRACK 300 AUDIO
    TITLE "TOEIC LR Kinnojyukugo_02_300"
    INDEX 01 08:25:55
  TRACK 301 AUDIO
    TITLE "TOEIC LR Kinnojyukugo_02_301"
    INDEX 01 08:26:63
  TRACK 302 AUDIO
    TITLE "TOEIC LR Kinnojyukugo_02_302"
    INDEX 01 08:28:38
  TRACK 303 AUDIO
    TITLE "TOEIC LR Kinnojyukugo_02_303"
    INDEX 01 08:29:08
  TRACK 304 AUDIO
    TITLE "TOEIC LR Kinnojyukugo_02_304"
    INDEX 01 08:32:46
  TRACK 305 AUDIO
    TITLE "TOEIC LR Kinnojyukugo_02_305"
    INDEX 01 08:33:14
  TRACK 306 AUDIO
    TITLE "TOEIC LR Kinnojyukugo_02_306"
    INDEX 01 08:37:08
  TRACK 307 AUDIO
    TITLE "TOEIC LR Kinnojyukugo_02_307"
    INDEX 01 08:38:52
  TRACK 308 AUDIO
    TITLE "TOEIC LR Kinnojyukugo_02_308"
    INDEX 01 08:39:16
  TRACK 309 AUDIO
    TITLE "TOEIC LR Kinnojyukugo_02_309"
    INDEX 01 08:42:62
  TRACK 310 AUDIO
    TITLE "TOEIC LR Kinnojyukugo_02_310"
    INDEX 01 08:44:39
  TRACK 311 AUDIO
    TITLE "TOEIC LR Kinnojyukugo_02_311"
    INDEX 01 08:45:13
  TRACK 312 AUDIO
    TITLE "TOEIC LR Kinnojyukugo_02_312"
    INDEX 01 08:48:60
  TRACK 313 AUDIO
    TITLE "TOEIC LR Kinnojyukugo_02_313"
    INDEX 01 08:50:38
  TRACK 314 AUDIO
    TITLE "TOEIC LR Kinnojyukugo_02_314"
    INDEX 01 08:51:35
  TRACK 315 AUDIO
    TITLE "TOEIC LR Kinnojyukugo_02_315"
    INDEX 01 08:52:56
  TRACK 316 AUDIO
    TITLE "TOEIC LR Kinnojyukugo_02_316"
    INDEX 01 08:53:22
  TRACK 317 AUDIO
    TITLE "TOEIC LR Kinnojyukugo_02_317"
    INDEX 01 08:55:49
  TRACK 318 AUDIO
    TITLE "TOEIC LR Kinnojyukugo_02_318"
    INDEX 01 08:56:13
  TRACK 319 AUDIO
    TITLE "TOEIC LR Kinnojyukugo_02_319"
    INDEX 01 09:01:41
  TRACK 320 AUDIO
    TITLE "TOEIC LR Kinnojyukugo_02_320"
    INDEX 01 09:02:56
  TRACK 321 AUDIO
    TITLE "TOEIC LR Kinnojyukugo_02_321"
    INDEX 01 09:03:23
  TRACK 322 AUDIO
    TITLE "TOEIC LR Kinnojyukugo_02_322"
    INDEX 01 09:07:16
  TRACK 323 AUDIO
    TITLE "TOEIC LR Kinnojyukugo_02_323"
    INDEX 01 09:08:28
  TRACK 324 AUDIO
    TITLE "TOEIC LR Kinnojyukugo_02_324"
    INDEX 01 09:09:06
  TRACK 325 AUDIO
    TITLE "TOEIC LR Kinnojyukugo_02_325"
    INDEX 01 09:12:73
  TRACK 326 AUDIO
    TITLE "TOEIC LR Kinnojyukugo_02_326"
    INDEX 01 09:14:07
  TRACK 327 AUDIO
    TITLE "TOEIC LR Kinnojyukugo_02_327"
    INDEX 01 09:15:10
  TRACK 328 AUDIO
    TITLE "TOEIC LR Kinnojyukugo_02_328"
    INDEX 01 09:16:25
  TRACK 329 AUDIO
    TITLE "TOEIC LR Kinnojyukugo_02_329"
    INDEX 01 09:16:62
  TRACK 330 AUDIO
    TITLE "TOEIC LR Kinnojyukugo_02_330"
    INDEX 01 09:18:12
  TRACK 331 AUDIO
    TITLE "TOEIC LR Kinnojyukugo_02_331"
    INDEX 01 09:18:52
  TRACK 332 AUDIO
    TITLE "TOEIC LR Kinnojyukugo_02_332"
    INDEX 01 09:21:21
  TRACK 333 AUDIO
    TITLE "TOEIC LR Kinnojyukugo_02_333"
    INDEX 01 09:24:11
  TRACK 334 AUDIO
    TITLE "TOEIC LR Kinnojyukugo_02_334"
    INDEX 01 09:24:56
  TRACK 335 AUDIO
    TITLE "TOEIC LR Kinnojyukugo_02_335"
    INDEX 01 09:27:52
  TRACK 336 AUDIO
    TITLE "TOEIC LR Kinnojyukugo_02_336"
    INDEX 01 09:30:66
  TRACK 337 AUDIO
    TITLE "TOEIC LR Kinnojyukugo_02_337"
    INDEX 01 09:31:39
  TRACK 338 AUDIO
    TITLE "TOEIC LR Kinnojyukugo_02_338"
    INDEX 01 09:34:35
  TRACK 339 AUDIO
    TITLE "TOEIC LR Kinnojyukugo_02_339"
    INDEX 01 09:37:47
  TRACK 340 AUDIO
    TITLE "TOEIC LR Kinnojyukugo_02_340"
    INDEX 01 09:38:46
  TRACK 341 AUDIO
    TITLE "TOEIC LR Kinnojyukugo_02_341"
    INDEX 01 09:40:06
  TRACK 342 AUDIO
    TITLE "TOEIC LR Kinnojyukugo_02_342"
    INDEX 01 09:40:43
  TRACK 343 AUDIO
    TITLE "TOEIC LR Kinnojyukugo_02_343"
    INDEX 01 09:42:42
  TRACK 344 AUDIO
    TITLE "TOEIC LR Kinnojyukugo_02_344"
    INDEX 01 09:43:06
  TRACK 345 AUDIO
    TITLE "TOEIC LR Kinnojyukugo_02_345"
    INDEX 01 09:46:52
  TRACK 346 AUDIO
    TITLE "TOEIC LR Kinnojyukugo_02_346"
    INDEX 01 09:48:43
  TRACK 347 AUDIO
    TITLE "TOEIC LR Kinnojyukugo_02_347"
    INDEX 01 09:49:05
  TRACK 348 AUDIO
    TITLE "TOEIC LR Kinnojyukugo_02_348"
    INDEX 01 09:51:57
  TRACK 349 AUDIO
    TITLE "TOEIC LR Kinnojyukugo_02_349"
    INDEX 01 09:53:15
  TRACK 350 AUDIO
    TITLE "TOEIC LR Kinnojyukugo_02_350"
    INDEX 01 09:53:64
  TRACK 351 AUDIO
    TITLE "TOEIC LR Kinnojyukugo_02_351"
    INDEX 01 09:56:40
  TRACK 352 AUDIO
    TITLE "TOEIC LR Kinnojyukugo_02_352"
    INDEX 01 09:57:71
  TRACK 353 AUDIO
    TITLE "TOEIC LR Kinnojyukugo_02_353"
    INDEX 01 09:58:71
  TRACK 354 AUDIO
    TITLE "TOEIC LR Kinnojyukugo_02_354"
    INDEX 01 10:00:09
  TRACK 355 AUDIO
    TITLE "TOEIC LR Kinnojyukugo_02_355"
    INDEX 01 10:00:46
  TRACK 356 AUDIO
    TITLE "TOEIC LR Kinnojyukugo_02_356"
    INDEX 01 10:01:65
  TRACK 357 AUDIO
    TITLE "TOEIC LR Kinnojyukugo_02_357"
    INDEX 01 10:02:29
  TRACK 358 AUDIO
    TITLE "TOEIC LR Kinnojyukugo_02_358"
    INDEX 01 10:05:71
  TRACK 359 AUDIO
    TITLE "TOEIC LR Kinnojyukugo_02_359"
    INDEX 01 10:07:40
  TRACK 360 AUDIO
    TITLE "TOEIC LR Kinnojyukugo_02_360"
    INDEX 01 10:08:01
  TRACK 361 AUDIO
    TITLE "TOEIC LR Kinnojyukugo_02_361"
    INDEX 01 10:10:72
  TRACK 362 AUDIO
    TITLE "TOEIC LR Kinnojyukugo_02_362"
    INDEX 01 10:12:41
  TRACK 363 AUDIO
    TITLE "TOEIC LR Kinnojyukugo_02_363"
    INDEX 01 10:13:21
  TRACK 364 AUDIO
    TITLE "TOEIC LR Kinnojyukugo_02_364"
    INDEX 01 10:16:20
  TRACK 365 AUDIO
    TITLE "TOEIC LR Kinnojyukugo_02_365"
    INDEX 01 10:17:64
  TRACK 366 AUDIO
    TITLE "TOEIC LR Kinnojyukugo_02_366"
    INDEX 01 10:18:73
  TRACK 367 AUDIO
    TITLE "TOEIC LR Kinnojyukugo_02_367"
    INDEX 01 10:21:38
  TRACK 368 AUDIO
    TITLE "TOEIC LR Kinnojyukugo_02_368"
    INDEX 01 10:22:01
  TRACK 369 AUDIO
    TITLE "TOEIC LR Kinnojyukugo_02_369"
    INDEX 01 10:25:24
  TRACK 370 AUDIO
    TITLE "TOEIC LR Kinnojyukugo_02_370"
    INDEX 01 10:25:66
  TRACK 371 AUDIO
    TITLE "TOEIC LR Kinnojyukugo_02_371"
    INDEX 01 10:30:24
  TRACK 372 AUDIO
    TITLE "TOEIC LR Kinnojyukugo_02_372"
    INDEX 01 10:33:44
  TRACK 373 AUDIO
    TITLE "TOEIC LR Kinnojyukugo_02_373"
    INDEX 01 10:34:08
  TRACK 374 AUDIO
    TITLE "TOEIC LR Kinnojyukugo_02_374"
    INDEX 01 10:37:20
  TRACK 375 AUDIO
    TITLE "TOEIC LR Kinnojyukugo_02_375"
    INDEX 01 10:39:32
  TRACK 376 AUDIO
    TITLE "TOEIC LR Kinnojyukugo_02_376"
    INDEX 01 10:40:08
  TRACK 377 AUDIO
    TITLE "TOEIC LR Kinnojyukugo_02_377"
    INDEX 01 10:43:18
  TRACK 378 AUDIO
    TITLE "TOEIC LR Kinnojyukugo_02_378"
    INDEX 01 10:45:33
  TRACK 379 AUDIO
    TITLE "TOEIC LR Kinnojyukugo_02_379"
    INDEX 01 10:46:32
  TRACK 380 AUDIO
    TITLE "TOEIC LR Kinnojyukugo_02_380"
    INDEX 01 10:47:50
  TRACK 381 AUDIO
    TITLE "TOEIC LR Kinnojyukugo_02_381"
    INDEX 01 10:48:08
  TRACK 382 AUDIO
    TITLE "TOEIC LR Kinnojyukugo_02_382"
    INDEX 01 10:51:18
  TRACK 383 AUDIO
    TITLE "TOEIC LR Kinnojyukugo_02_383"
    INDEX 01 10:51:55
  TRACK 384 AUDIO
    TITLE "TOEIC LR Kinnojyukugo_02_384"
    INDEX 01 10:55:22
  TRACK 385 AUDIO
    TITLE "TOEIC LR Kinnojyukugo_02_385"
    INDEX 01 10:57:34
  TRACK 386 AUDIO
    TITLE "TOEIC LR Kinnojyukugo_02_386"
    INDEX 01 10:57:75
  TRACK 387 AUDIO
    TITLE "TOEIC LR Kinnojyukugo_02_387"
    INDEX 01 11:01:73
  TRACK 388 AUDIO
    TITLE "TOEIC LR Kinnojyukugo_02_388"
    INDEX 01 11:04:05
  TRACK 389 AUDIO
    TITLE "TOEIC LR Kinnojyukugo_02_389"
    INDEX 01 11:04:56
  TRACK 390 AUDIO
    TITLE "TOEIC LR Kinnojyukugo_02_390"
    INDEX 01 11:08:58
  TRACK 391 AUDIO
    TITLE "TOEIC LR Kinnojyukugo_02_391"
    INDEX 01 11:10:64
  TRACK 392 AUDIO
    TITLE "TOEIC LR Kinnojyukugo_02_392"
    INDEX 01 11:11:64
  TRACK 393 AUDIO
    TITLE "TOEIC LR Kinnojyukugo_02_393"
    INDEX 01 11:13:57
  TRACK 394 AUDIO
    TITLE "TOEIC LR Kinnojyukugo_02_394"
    INDEX 01 11:14:21
  TRACK 395 AUDIO
    TITLE "TOEIC LR Kinnojyukugo_02_395"
    INDEX 01 11:15:69
  TRACK 396 AUDIO
    TITLE "TOEIC LR Kinnojyukugo_02_396"
    INDEX 01 11:16:36
  TRACK 397 AUDIO
    TITLE "TOEIC LR Kinnojyukugo_02_397"
    INDEX 01 11:18:52
  TRACK 398 AUDIO
    TITLE "TOEIC LR Kinnojyukugo_02_398"
    INDEX 01 11:20:65
  TRACK 399 AUDIO
    TITLE "TOEIC LR Kinnojyukugo_02_399"
    INDEX 01 11:21:29
  TRACK 400 AUDIO
    TITLE "TOEIC LR Kinnojyukugo_02_400"
    INDEX 01 11:23:24
  TRACK 401 AUDIO
    TITLE "TOEIC LR Kinnojyukugo_02_401"
    INDEX 01 11:25:03
  TRACK 402 AUDIO
    TITLE "TOEIC LR Kinnojyukugo_02_402"
    INDEX 01 11:25:54
  TRACK 403 AUDIO
    TITLE "TOEIC LR Kinnojyukugo_02_403"
    INDEX 01 11:27:47
  TRACK 404 AUDIO
    TITLE "TOEIC LR Kinnojyukugo_02_404"
    INDEX 01 11:29:28
  TRACK 405 AUDIO
    TITLE "TOEIC LR Kinnojyukugo_02_405"
    INDEX 01 11:30:28
  TRACK 406 AUDIO
    TITLE "TOEIC LR Kinnojyukugo_02_406"
    INDEX 01 11:31:47
  TRACK 407 AUDIO
    TITLE "TOEIC LR Kinnojyukugo_02_407"
    INDEX 01 11:32:09
  TRACK 408 AUDIO
    TITLE "TOEIC LR Kinnojyukugo_02_408"
    INDEX 01 11:34:35
  TRACK 409 AUDIO
    TITLE "TOEIC LR Kinnojyukugo_02_409"
    INDEX 01 11:34:73
  TRACK 410 AUDIO
    TITLE "TOEIC LR Kinnojyukugo_02_410"
    INDEX 01 11:37:55
  TRACK 411 AUDIO
    TITLE "TOEIC LR Kinnojyukugo_02_411"
    INDEX 01 11:39:70
  TRACK 412 AUDIO
    TITLE "TOEIC LR Kinnojyukugo_02_412"
    INDEX 01 11:40:34
  TRACK 413 AUDIO
    TITLE "TOEIC LR Kinnojyukugo_02_413"
    INDEX 01 11:42:60
  TRACK 414 AUDIO
    TITLE "TOEIC LR Kinnojyukugo_02_414"
    INDEX 01 11:45:53
  TRACK 415 AUDIO
    TITLE "TOEIC LR Kinnojyukugo_02_415"
    INDEX 01 11:46:27
  TRACK 416 AUDIO
    TITLE "TOEIC LR Kinnojyukugo_02_416"
    INDEX 01 11:48:55
  TRACK 417 AUDIO
    TITLE "TOEIC LR Kinnojyukugo_02_417"
    INDEX 01 11:51:48
  TRACK 418 AUDIO
    TITLE "TOEIC LR Kinnojyukugo_02_418"
    INDEX 01 11:52:49
  TRACK 419 AUDIO
    TITLE "TOEIC LR Kinnojyukugo_02_419"
    INDEX 01 11:54:15
  TRACK 420 AUDIO
    TITLE "TOEIC LR Kinnojyukugo_02_420"
    INDEX 01 11:54:54
  TRACK 421 AUDIO
    TITLE "TOEIC LR Kinnojyukugo_02_421"
    INDEX 01 11:56:37
  TRACK 422 AUDIO
    TITLE "TOEIC LR Kinnojyukugo_02_422"
    INDEX 01 11:57:03
  TRACK 423 AUDIO
    TITLE "TOEIC LR Kinnojyukugo_02_423"
    INDEX 01 12:01:11
  TRACK 424 AUDIO
    TITLE "TOEIC LR Kinnojyukugo_02_424"
    INDEX 01 12:04:72
  TRACK 425 AUDIO
    TITLE "TOEIC LR Kinnojyukugo_02_425"
    INDEX 01 12:05:36
  TRACK 426 AUDIO
    TITLE "TOEIC LR Kinnojyukugo_02_426"
    INDEX 01 12:09:34
  TRACK 427 AUDIO
    TITLE "TOEIC LR Kinnojyukugo_02_427"
    INDEX 01 12:13:47
  TRACK 428 AUDIO
    TITLE "TOEIC LR Kinnojyukugo_02_428"
    INDEX 01 12:14:21
  TRACK 429 AUDIO
    TITLE "TOEIC LR Kinnojyukugo_02_429"
    INDEX 01 12:18:19
  TRACK 430 AUDIO
    TITLE "TOEIC LR Kinnojyukugo_02_430"
    INDEX 01 12:22:30
  TRACK 431 AUDIO
    TITLE "TOEIC LR Kinnojyukugo_02_431"
    INDEX 01 12:23:30
  TRACK 432 AUDIO
    TITLE "TOEIC LR Kinnojyukugo_02_432"
    INDEX 01 12:24:55
  TRACK 433 AUDIO
    TITLE "TOEIC LR Kinnojyukugo_02_433"
    INDEX 01 12:25:15
  TRACK 434 AUDIO
    TITLE "TOEIC LR Kinnojyukugo_02_434"
    INDEX 01 12:26:17
  TRACK 435 AUDIO
    TITLE "TOEIC LR Kinnojyukugo_02_435"
    INDEX 01 12:26:62
  TRACK 436 AUDIO
    TITLE "TOEIC LR Kinnojyukugo_02_436"
    INDEX 01 12:29:68
  TRACK 437 AUDIO
    TITLE "TOEIC LR Kinnojyukugo_02_437"
    INDEX 01 12:33:64
  TRACK 438 AUDIO
    TITLE "TOEIC LR Kinnojyukugo_02_438"
    INDEX 01 12:34:26
  TRACK 439 AUDIO
    TITLE "TOEIC LR Kinnojyukugo_02_439"
    INDEX 01 12:37:46
  TRACK 440 AUDIO
    TITLE "TOEIC LR Kinnojyukugo_02_440"
    INDEX 01 12:41:69
  TRACK 441 AUDIO
    TITLE "TOEIC LR Kinnojyukugo_02_441"
    INDEX 01 12:42:43
  TRACK 442 AUDIO
    TITLE "TOEIC LR Kinnojyukugo_02_442"
    INDEX 01 12:45:63
  TRACK 443 AUDIO
    TITLE "TOEIC LR Kinnojyukugo_02_443"
    INDEX 01 12:50:11
  TRACK 444 AUDIO
    TITLE "TOEIC LR Kinnojyukugo_02_444"
    INDEX 01 12:51:07
  TRACK 445 AUDIO
    TITLE "TOEIC LR Kinnojyukugo_02_445"
    INDEX 01 12:52:39
  TRACK 446 AUDIO
    TITLE "TOEIC LR Kinnojyukugo_02_446"
    INDEX 01 12:53:04
  TRACK 447 AUDIO
    TITLE "TOEIC LR Kinnojyukugo_02_447"
    INDEX 01 12:54:58
  TRACK 448 AUDIO
    TITLE "TOEIC LR Kinnojyukugo_02_448"
    INDEX 01 12:55:24
  TRACK 449 AUDIO
    TITLE "TOEIC LR Kinnojyukugo_02_449"
    INDEX 01 12:58:50
  TRACK 450 AUDIO
    TITLE "TOEIC LR Kinnojyukugo_02_450"
    INDEX 01 13:05:54
  TRACK 451 AUDIO
    TITLE "TOEIC LR Kinnojyukugo_02_451"
    INDEX 01 13:06:18
  TRACK 452 AUDIO
    TITLE "TOEIC LR Kinnojyukugo_02_452"
    INDEX 01 13:09:26
  TRACK 453 AUDIO
    TITLE "TOEIC LR Kinnojyukugo_02_453"
    INDEX 01 13:14:61
  TRACK 454 AUDIO
    TITLE "TOEIC LR Kinnojyukugo_02_454"
    INDEX 01 13:15:37
  TRACK 455 AUDIO
    TITLE "TOEIC LR Kinnojyukugo_02_455"
    INDEX 01 13:18:47
  TRACK 456 AUDIO
    TITLE "TOEIC LR Kinnojyukugo_02_456"
    INDEX 01 13:24:06
  TRACK 457 AUDIO
    TITLE "TOEIC LR Kinnojyukugo_02_457"
    INDEX 01 13:25:06
  TRACK 458 AUDIO
    TITLE "TOEIC LR Kinnojyukugo_02_458"
    INDEX 01 13:26:30
  TRACK 459 AUDIO
    TITLE "TOEIC LR Kinnojyukugo_02_459"
    INDEX 01 13:26:68
  TRACK 460 AUDIO
    TITLE "TOEIC LR Kinnojyukugo_02_460"
    INDEX 01 13:30:26
  TRACK 461 AUDIO
    TITLE "TOEIC LR Kinnojyukugo_02_461"
    INDEX 01 13:30:64
  TRACK 462 AUDIO
    TITLE "TOEIC LR Kinnojyukugo_02_462"
    INDEX 01 13:33:36
  TRACK 463 AUDIO
    TITLE "TOEIC LR Kinnojyukugo_02_463"
    INDEX 01 13:37:05
  TRACK 464 AUDIO
    TITLE "TOEIC LR Kinnojyukugo_02_464"
    INDEX 01 13:37:42
  TRACK 465 AUDIO
    TITLE "TOEIC LR Kinnojyukugo_02_465"
    INDEX 01 13:40:44
  TRACK 466 AUDIO
    TITLE "TOEIC LR Kinnojyukugo_02_466"
    INDEX 01 13:43:58
  TRACK 467 AUDIO
    TITLE "TOEIC LR Kinnojyukugo_02_467"
    INDEX 01 13:44:32
  TRACK 468 AUDIO
    TITLE "TOEIC LR Kinnojyukugo_02_468"
    INDEX 01 13:47:37
  TRACK 469 AUDIO
    TITLE "TOEIC LR Kinnojyukugo_02_469"
    INDEX 01 13:50:49
  TRACK 470 AUDIO
    TITLE "TOEIC LR Kinnojyukugo_02_470"
    INDEX 01 13:51:48
  TRACK 471 AUDIO
    TITLE "TOEIC LR Kinnojyukugo_02_471"
    INDEX 01 13:53:08
  TRACK 472 AUDIO
    TITLE "TOEIC LR Kinnojyukugo_02_472"
    INDEX 01 13:53:47
  TRACK 473 AUDIO
    TITLE "TOEIC LR Kinnojyukugo_02_473"
    INDEX 01 13:56:18
  TRACK 474 AUDIO
    TITLE "TOEIC LR Kinnojyukugo_02_474"
    INDEX 01 13:56:63
  TRACK 475 AUDIO
    TITLE "TOEIC LR Kinnojyukugo_02_475"
    INDEX 01 14:00:24
  TRACK 476 AUDIO
    TITLE "TOEIC LR Kinnojyukugo_02_476"
    INDEX 01 14:02:15
  TRACK 477 AUDIO
    TITLE "TOEIC LR Kinnojyukugo_02_477"
    INDEX 01 14:02:54
  TRACK 478 AUDIO
    TITLE "TOEIC LR Kinnojyukugo_02_478"
    INDEX 01 14:06:22
  TRACK 479 AUDIO
    TITLE "TOEIC LR Kinnojyukugo_02_479"
    INDEX 01 14:08:37
  TRACK 480 AUDIO
    TITLE "TOEIC LR Kinnojyukugo_02_480"
    INDEX 01 14:09:11
  TRACK 481 AUDIO
    TITLE "TOEIC LR Kinnojyukugo_02_481"
    INDEX 01 14:12:52
  TRACK 482 AUDIO
    TITLE "TOEIC LR Kinnojyukugo_02_482"
    INDEX 01 14:14:69
  TRACK 483 AUDIO
    TITLE "TOEIC LR Kinnojyukugo_02_483"
    INDEX 01 14:15:68
  TRACK 484 AUDIO
    TITLE "TOEIC LR Kinnojyukugo_02_484"
    INDEX 01 14:17:02
  TRACK 485 AUDIO
    TITLE "TOEIC LR Kinnojyukugo_02_485"
    INDEX 01 14:17:40
  TRACK 486 AUDIO
    TITLE "TOEIC LR Kinnojyukugo_02_486"
    INDEX 01 14:22:39
  TRACK 487 AUDIO
    TITLE "TOEIC LR Kinnojyukugo_02_487"
    INDEX 01 14:23:03
  TRACK 488 AUDIO
    TITLE "TOEIC LR Kinnojyukugo_02_488"
    INDEX 01 14:27:48
  TRACK 489 AUDIO
    TITLE "TOEIC LR Kinnojyukugo_02_489"
    INDEX 01 14:31:06
  TRACK 490 AUDIO
    TITLE "TOEIC LR Kinnojyukugo_02_490"
    INDEX 01 14:31:46
  TRACK 491 AUDIO
    TITLE "TOEIC LR Kinnojyukugo_02_491"
    INDEX 01 14:35:45
  TRACK 492 AUDIO
    TITLE "TOEIC LR Kinnojyukugo_02_492"
    INDEX 01 14:38:50
  TRACK 493 AUDIO
    TITLE "TOEIC LR Kinnojyukugo_02_493"
    INDEX 01 14:39:26
  TRACK 494 AUDIO
    TITLE "TOEIC LR Kinnojyukugo_02_494"
    INDEX 01 14:43:25
  TRACK 495 AUDIO
    TITLE "TOEIC LR Kinnojyukugo_02_495"
    INDEX 01 14:46:30
  TRACK 496 AUDIO
    TITLE "TOEIC LR Kinnojyukugo_02_496"
    INDEX 01 14:47:31
  TRACK 497 AUDIO
    TITLE "TOEIC LR Kinnojyukugo_02_497"
    INDEX 01 14:48:56
  TRACK 498 AUDIO
    TITLE "TOEIC LR Kinnojyukugo_02_498"
    INDEX 01 14:49:18
  TRACK 499 AUDIO
    TITLE "TOEIC LR Kinnojyukugo_02_499"
    INDEX 01 14:50:74
  TRACK 500 AUDIO
    TITLE "TOEIC LR Kinnojyukugo_02_500"
    INDEX 01 14:51:39
  TRACK 501 AUDIO
    TITLE "TOEIC LR Kinnojyukugo_02_501"
    INDEX 01 14:56:36
  TRACK 502 AUDIO
    TITLE "TOEIC LR Kinnojyukugo_02_502"
    INDEX 01 15:02:54
  TRACK 503 AUDIO
    TITLE "TOEIC LR Kinnojyukugo_02_503"
    INDEX 01 15:03:18
  TRACK 504 AUDIO
    TITLE "TOEIC LR Kinnojyukugo_02_504"
    INDEX 01 15:08:15
  TRACK 505 AUDIO
    TITLE "TOEIC LR Kinnojyukugo_02_505"
    INDEX 01 15:13:58
  TRACK 506 AUDIO
    TITLE "TOEIC LR Kinnojyukugo_02_506"
    INDEX 01 15:14:34
  TRACK 507 AUDIO
    TITLE "TOEIC LR Kinnojyukugo_02_507"
    INDEX 01 15:19:31
  TRACK 508 AUDIO
    TITLE "TOEIC LR Kinnojyukugo_02_508"
    INDEX 01 15:24:73
  TRACK 509 AUDIO
    TITLE "TOEIC LR Kinnojyukugo_02_509"
    INDEX 01 15:26:02
  TRACK 510 AUDIO
    TITLE "TOEIC LR Kinnojyukugo_02_510"
    INDEX 01 15:27:27
  TRACK 511 AUDIO
    TITLE "TOEIC LR Kinnojyukugo_02_511"
    INDEX 01 15:27:64
  TRACK 512 AUDIO
    TITLE "TOEIC LR Kinnojyukugo_02_512"
    INDEX 01 15:29:47
  TRACK 513 AUDIO
    TITLE "TOEIC LR Kinnojyukugo_02_513"
    INDEX 01 15:30:11
  TRACK 514 AUDIO
    TITLE "TOEIC LR Kinnojyukugo_02_514"
    INDEX 01 15:32:30
  TRACK 515 AUDIO
    TITLE "TOEIC LR Kinnojyukugo_02_515"
    INDEX 01 15:34:36
  TRACK 516 AUDIO
    TITLE "TOEIC LR Kinnojyukugo_02_516"
    INDEX 01 15:34:74
  TRACK 517 AUDIO
    TITLE "TOEIC LR Kinnojyukugo_02_517"
    INDEX 01 15:36:55
  TRACK 518 AUDIO
    TITLE "TOEIC LR Kinnojyukugo_02_518"
    INDEX 01 15:38:05
  TRACK 519 AUDIO
    TITLE "TOEIC LR Kinnojyukugo_02_519"
    INDEX 01 15:38:56
  TRACK 520 AUDIO
    TITLE "TOEIC LR Kinnojyukugo_02_520"
    INDEX 01 15:40:37
  TRACK 521 AUDIO
    TITLE "TOEIC LR Kinnojyukugo_02_521"
    INDEX 01 15:41:62
  TRACK 522 AUDIO
    TITLE "TOEIC LR Kinnojyukugo_02_522"
    INDEX 01 15:42:63
  TRACK 523 AUDIO
    TITLE "TOEIC LR Kinnojyukugo_02_523"
    INDEX 01 15:46:51
  TRACK 524 AUDIO
    TITLE "TOEIC LR Kinnojyukugo_02_524"
    INDEX 01 15:47:25
  TRACK 525 AUDIO
    TITLE "TOEIC LR Kinnojyukugo_02_525"
    INDEX 01 15:49:10
  TRACK 526 AUDIO
    TITLE "TOEIC LR Kinnojyukugo_02_526"
    INDEX 01 15:49:50
  TRACK 527 AUDIO
    TITLE "TOEIC LR Kinnojyukugo_02_527"
    INDEX 01 15:52:01
  TRACK 528 AUDIO
    TITLE "TOEIC LR Kinnojyukugo_02_528"
    INDEX 01 15:57:45
  TRACK 529 AUDIO
    TITLE "TOEIC LR Kinnojyukugo_02_529"
    INDEX 01 15:58:09
  TRACK 530 AUDIO
    TITLE "TOEIC LR Kinnojyukugo_02_530"
    INDEX 01 15:59:68
  TRACK 531 AUDIO
    TITLE "TOEIC LR Kinnojyukugo_02_531"
    INDEX 01 16:05:15
  TRACK 532 AUDIO
    TITLE "TOEIC LR Kinnojyukugo_02_532"
    INDEX 01 16:05:66
  TRACK 533 AUDIO
    TITLE "TOEIC LR Kinnojyukugo_02_533"
    INDEX 01 16:07:51
  TRACK 534 AUDIO
    TITLE "TOEIC LR Kinnojyukugo_02_534"
    INDEX 01 16:12:72
  TRACK 535 AUDIO
    TITLE "TOEIC LR Kinnojyukugo_02_535"
    INDEX 01 16:14:01
  TRACK 536 AUDIO
    TITLE "TOEIC LR Kinnojyukugo_02_536"
    INDEX 01 16:16:48
  TRACK 537 AUDIO
    TITLE "TOEIC LR Kinnojyukugo_02_537"
    INDEX 01 16:17:11
  TRACK 538 AUDIO
    TITLE "TOEIC LR Kinnojyukugo_02_538"
    INDEX 01 16:18:67
  TRACK 539 AUDIO
    TITLE "TOEIC LR Kinnojyukugo_02_539"
    INDEX 01 16:19:31
  TRACK 540 AUDIO
    TITLE "TOEIC LR Kinnojyukugo_02_540"
    INDEX 01 16:27:27
  TRACK 541 AUDIO
    TITLE "TOEIC LR Kinnojyukugo_02_541"
    INDEX 01 16:29:39
  TRACK 542 AUDIO
    TITLE "TOEIC LR Kinnojyukugo_02_542"
    INDEX 01 16:30:06
  TRACK 543 AUDIO
    TITLE "TOEIC LR Kinnojyukugo_02_543"
    INDEX 01 16:35:03
  TRACK 544 AUDIO
    TITLE "TOEIC LR Kinnojyukugo_02_544"
    INDEX 01 16:36:75
  TRACK 545 AUDIO
    TITLE "TOEIC LR Kinnojyukugo_02_545"
    INDEX 01 16:37:62
  TRACK 546 AUDIO
    TITLE "TOEIC LR Kinnojyukugo_02_546"
    INDEX 01 16:42:62
  TRACK 547 AUDIO
    TITLE "TOEIC LR Kinnojyukugo_02_547"
    INDEX 01 16:44:70
  TRACK 548 AUDIO
    TITLE "TOEIC LR Kinnojyukugo_02_548"
    INDEX 01 16:45:74
  TRACK 549 AUDIO
    TITLE "TOEIC LR Kinnojyukugo_02_549"
    INDEX 01 16:47:41
  TRACK 550 AUDIO
    TITLE "TOEIC LR Kinnojyukugo_02_550"
    INDEX 01 16:48:03
  TRACK 551 AUDIO
    TITLE "TOEIC LR Kinnojyukugo_02_551"
    INDEX 01 16:49:66
  TRACK 552 AUDIO
    TITLE "TOEIC LR Kinnojyukugo_02_552"
    INDEX 01 16:50:30
  TRACK 553 AUDIO
    TITLE "TOEIC LR Kinnojyukugo_02_553"
    INDEX 01 16:54:63
  TRACK 554 AUDIO
    TITLE "TOEIC LR Kinnojyukugo_02_554"
    INDEX 01 16:56:46
  TRACK 555 AUDIO
    TITLE "TOEIC LR Kinnojyukugo_02_555"
    INDEX 01 16:57:08
  TRACK 556 AUDIO
    TITLE "TOEIC LR Kinnojyukugo_02_556"
    INDEX 01 17:00:63
  TRACK 557 AUDIO
    TITLE "TOEIC LR Kinnojyukugo_02_557"
    INDEX 01 17:02:17
  TRACK 558 AUDIO
    TITLE "TOEIC LR Kinnojyukugo_02_558"
    INDEX 01 17:02:72
  TRACK 559 AUDIO
    TITLE "TOEIC LR Kinnojyukugo_02_559"
    INDEX 01 17:06:52
  TRACK 560 AUDIO
    TITLE "TOEIC LR Kinnojyukugo_02_560"
    INDEX 01 17:08:04
  TRACK 561 AUDIO
    TITLE "TOEIC LR Kinnojyukugo_02_561"
    INDEX 01 17:09:09
  TRACK 562 AUDIO
    TITLE "TOEIC LR Kinnojyukugo_02_562"
    INDEX 01 17:10:48
  TRACK 563 AUDIO
    TITLE "TOEIC LR Kinnojyukugo_02_563"
    INDEX 01 17:11:26
  TRACK 564 AUDIO
    TITLE "TOEIC LR Kinnojyukugo_02_564"
    INDEX 01 17:13:31
  TRACK 565 AUDIO
    TITLE "TOEIC LR Kinnojyukugo_02_565"
    INDEX 01 17:13:70
  TRACK 566 AUDIO
    TITLE "TOEIC LR Kinnojyukugo_02_566"
    INDEX 01 17:19:06
  TRACK 567 AUDIO
    TITLE "TOEIC LR Kinnojyukugo_02_567"
    INDEX 01 17:23:55
  TRACK 568 AUDIO
    TITLE "TOEIC LR Kinnojyukugo_02_568"
    INDEX 01 17:24:19
  TRACK 569 AUDIO
    TITLE "TOEIC LR Kinnojyukugo_02_569"
    INDEX 01 17:28:28
  TRACK 570 AUDIO
    TITLE "TOEIC LR Kinnojyukugo_02_570"
    INDEX 01 17:32:56
  TRACK 571 AUDIO
    TITLE "TOEIC LR Kinnojyukugo_02_571"
    INDEX 01 17:33:32
  TRACK 572 AUDIO
    TITLE "TOEIC LR Kinnojyukugo_02_572"
    INDEX 01 17:37:39
  TRACK 573 AUDIO
    TITLE "TOEIC LR Kinnojyukugo_02_573"
    INDEX 01 17:41:66
  TRACK 574 AUDIO
    TITLE "TOEIC LR Kinnojyukugo_02_574"
    INDEX 01 17:42:64
  TRACK 575 AUDIO
    TITLE "TOEIC LR Kinnojyukugo_02_575"
    INDEX 01 17:44:22
  TRACK 576 AUDIO
    TITLE "TOEIC LR Kinnojyukugo_02_576"
    INDEX 01 17:44:59
  TRACK 577 AUDIO
    TITLE "TOEIC LR Kinnojyukugo_02_577"
    INDEX 01 17:47:32
  TRACK 578 AUDIO
    TITLE "TOEIC LR Kinnojyukugo_02_578"
    INDEX 01 17:48:10
  TRACK 579 AUDIO
    TITLE "TOEIC LR Kinnojyukugo_02_579"
    INDEX 01 17:51:47
  TRACK 580 AUDIO
    TITLE "TOEIC LR Kinnojyukugo_02_580"
    INDEX 01 17:54:69
  TRACK 581 AUDIO
    TITLE "TOEIC LR Kinnojyukugo_02_581"
    INDEX 01 17:55:31
  TRACK 582 AUDIO
    TITLE "TOEIC LR Kinnojyukugo_02_582"
    INDEX 01 17:58:12
  TRACK 583 AUDIO
    TITLE "TOEIC LR Kinnojyukugo_02_583"
    INDEX 01 18:01:59
  TRACK 584 AUDIO
    TITLE "TOEIC LR Kinnojyukugo_02_584"
    INDEX 01 18:02:33
  TRACK 585 AUDIO
    TITLE "TOEIC LR Kinnojyukugo_02_585"
    INDEX 01 18:05:16
  TRACK 586 AUDIO
    TITLE "TOEIC LR Kinnojyukugo_02_586"
    INDEX 01 18:08:61
  TRACK 587 AUDIO
    TITLE "TOEIC LR Kinnojyukugo_02_587"
    INDEX 01 18:09:61
  TRACK 588 AUDIO
    TITLE "TOEIC LR Kinnojyukugo_02_588"
    INDEX 01 18:11:40
  TRACK 589 AUDIO
    TITLE "TOEIC LR Kinnojyukugo_02_589"
    INDEX 01 18:12:02
  TRACK 590 AUDIO
    TITLE "TOEIC LR Kinnojyukugo_02_590"
    INDEX 01 18:13:62
  TRACK 591 AUDIO
    TITLE "TOEIC LR Kinnojyukugo_02_591"
    INDEX 01 18:14:27
  TRACK 592 AUDIO
    TITLE "TOEIC LR Kinnojyukugo_02_592"
    INDEX 01 18:18:20
  TRACK 593 AUDIO
    TITLE "TOEIC LR Kinnojyukugo_02_593"
    INDEX 01 18:22:22
  TRACK 594 AUDIO
    TITLE "TOEIC LR Kinnojyukugo_02_594"
    INDEX 01 18:22:61
  TRACK 595 AUDIO
    TITLE "TOEIC LR Kinnojyukugo_02_595"
    INDEX 01 18:26:16
  TRACK 596 AUDIO
    TITLE "TOEIC LR Kinnojyukugo_02_596"
    INDEX 01 18:29:18
  TRACK 597 AUDIO
    TITLE "TOEIC LR Kinnojyukugo_02_597"
    INDEX 01 18:29:67
  TRACK 598 AUDIO
    TITLE "TOEIC LR Kinnojyukugo_02_598"
    INDEX 01 18:33:24
  TRACK 599 AUDIO
    TITLE "TOEIC LR Kinnojyukugo_02_599"
    INDEX 01 18:36:26
  TRACK 600 AUDIO
    TITLE "TOEIC LR Kinnojyukugo_02_600"
    INDEX 01 18:37:26
  TRACK 601 AUDIO
    TITLE "TOEIC LR Kinnojyukugo_02_601"
    INDEX 01 18:38:51
  TRACK 602 AUDIO
    TITLE "TOEIC LR Kinnojyukugo_02_602"
    INDEX 01 18:39:15
  TRACK 603 AUDIO
    TITLE "TOEIC LR Kinnojyukugo_02_603"
    INDEX 01 18:40:34
  TRACK 604 AUDIO
    TITLE "TOEIC LR Kinnojyukugo_02_604"
    INDEX 01 18:41:08
  TRACK 605 AUDIO
    TITLE "TOEIC LR Kinnojyukugo_02_605"
    INDEX 01 18:44:69
  TRACK 606 AUDIO
    TITLE "TOEIC LR Kinnojyukugo_02_606"
    INDEX 01 18:50:66
  TRACK 607 AUDIO
    TITLE "TOEIC LR Kinnojyukugo_02_607"
    INDEX 01 18:51:30
  TRACK 608 AUDIO
    TITLE "TOEIC LR Kinnojyukugo_02_608"
    INDEX 01 18:53:62
  TRACK 609 AUDIO
    TITLE "TOEIC LR Kinnojyukugo_02_609"
    INDEX 01 18:59:70
  TRACK 610 AUDIO
    TITLE "TOEIC LR Kinnojyukugo_02_610"
    INDEX 01 19:00:46
  TRACK 611 AUDIO
    TITLE "TOEIC LR Kinnojyukugo_02_611"
    INDEX 01 19:03:03
  TRACK 612 AUDIO
    TITLE "TOEIC LR Kinnojyukugo_02_612"
    INDEX 01 19:09:12
  TRACK 613 AUDIO
    TITLE "TOEIC LR Kinnojyukugo_02_613"
    INDEX 01 19:10:11
  TRACK 614 AUDIO
    TITLE "TOEIC LR Kinnojyukugo_02_614"
    INDEX 01 19:11:40
  TRACK 615 AUDIO
    TITLE "TOEIC LR Kinnojyukugo_02_615"
    INDEX 01 19:12:02
  TRACK 616 AUDIO
    TITLE "TOEIC LR Kinnojyukugo_02_616"
    INDEX 01 19:13:29
  TRACK 617 AUDIO
    TITLE "TOEIC LR Kinnojyukugo_02_617"
    INDEX 01 19:13:69
  TRACK 618 AUDIO
    TITLE "TOEIC LR Kinnojyukugo_02_618"
    INDEX 01 19:16:43
  TRACK 619 AUDIO
    TITLE "TOEIC LR Kinnojyukugo_02_619"
    INDEX 01 19:18:31
  TRACK 620 AUDIO
    TITLE "TOEIC LR Kinnojyukugo_02_620"
    INDEX 01 19:18:72
  TRACK 621 AUDIO
    TITLE "TOEIC LR Kinnojyukugo_02_621"
    INDEX 01 19:21:21
  TRACK 622 AUDIO
    TITLE "TOEIC LR Kinnojyukugo_02_622"
    INDEX 01 19:23:22
  TRACK 623 AUDIO
    TITLE "TOEIC LR Kinnojyukugo_02_623"
    INDEX 01 19:23:73
  TRACK 624 AUDIO
    TITLE "TOEIC LR Kinnojyukugo_02_624"
    INDEX 01 19:26:24
  TRACK 625 AUDIO
    TITLE "TOEIC LR Kinnojyukugo_02_625"
    INDEX 01 19:28:25
  TRACK 626 AUDIO
    TITLE "TOEIC LR Kinnojyukugo_02_626"
    INDEX 01 19:29:26
  TRACK 627 AUDIO
    TITLE "TOEIC LR Kinnojyukugo_02_627"
    INDEX 01 19:30:53
  TRACK 628 AUDIO
    TITLE "TOEIC LR Kinnojyukugo_02_628"
    INDEX 01 19:31:17
  TRACK 629 AUDIO
    TITLE "TOEIC LR Kinnojyukugo_02_629"
    INDEX 01 19:33:69
  TRACK 630 AUDIO
    TITLE "TOEIC LR Kinnojyukugo_02_630"
    INDEX 01 19:34:31
  TRACK 631 AUDIO
    TITLE "TOEIC LR Kinnojyukugo_02_631"
    INDEX 01 19:37:45
  TRACK 632 AUDIO
    TITLE "TOEIC LR Kinnojyukugo_02_632"
    INDEX 01 19:40:16
  TRACK 633 AUDIO
    TITLE "TOEIC LR Kinnojyukugo_02_633"
    INDEX 01 19:40:58
  TRACK 634 AUDIO
    TITLE "TOEIC LR Kinnojyukugo_02_634"
    INDEX 01 19:43:01
  TRACK 635 AUDIO
    TITLE "TOEIC LR Kinnojyukugo_02_635"
    INDEX 01 19:45:12
  TRACK 636 AUDIO
    TITLE "TOEIC LR Kinnojyukugo_02_636"
    INDEX 01 19:45:63
  TRACK 637 AUDIO
    TITLE "TOEIC LR Kinnojyukugo_02_637"
    INDEX 01 19:48:08
  TRACK 638 AUDIO
    TITLE "TOEIC LR Kinnojyukugo_02_638"
    INDEX 01 19:50:17
  TRACK 639 AUDIO
    TITLE "TOEIC LR Kinnojyukugo_02_639"
    INDEX 01 19:51:16
  TRACK 640 AUDIO
    TITLE "TOEIC LR Kinnojyukugo_02_640"
    INDEX 01 19:52:67
  TRACK 641 AUDIO
    TITLE "TOEIC LR Kinnojyukugo_02_641"
    INDEX 01 19:53:29
  TRACK 642 AUDIO
    TITLE "TOEIC LR Kinnojyukugo_02_642"
    INDEX 01 19:56:74
  TRACK 643 AUDIO
    TITLE "TOEIC LR Kinnojyukugo_02_643"
    INDEX 01 19:57:38
  TRACK 644 AUDIO
    TITLE "TOEIC LR Kinnojyukugo_02_644"
    INDEX 01 20:00:49
  TRACK 645 AUDIO
    TITLE "TOEIC LR Kinnojyukugo_02_645"
    INDEX 01 20:04:44
  TRACK 646 AUDIO
    TITLE "TOEIC LR Kinnojyukugo_02_646"
    INDEX 01 20:05:09
  TRACK 647 AUDIO
    TITLE "TOEIC LR Kinnojyukugo_02_647"
    INDEX 01 20:08:54
  TRACK 648 AUDIO
    TITLE "TOEIC LR Kinnojyukugo_02_648"
    INDEX 01 20:12:24
  TRACK 649 AUDIO
    TITLE "TOEIC LR Kinnojyukugo_02_649"
    INDEX 01 20:12:69
  TRACK 650 AUDIO
    TITLE "TOEIC LR Kinnojyukugo_02_650"
    INDEX 01 20:16:42
  TRACK 651 AUDIO
    TITLE "TOEIC LR Kinnojyukugo_02_651"
    INDEX 01 20:20:12
  TRACK 652 AUDIO
    TITLE "TOEIC LR Kinnojyukugo_02_652"
    INDEX 01 20:21:09
  TRACK 653 AUDIO
    TITLE "TOEIC LR Kinnojyukugo_02_653"
    INDEX 01 20:22:48
  TRACK 654 AUDIO
    TITLE "TOEIC LR Kinnojyukugo_02_654"
    INDEX 01 20:23:12
  TRACK 655 AUDIO
    TITLE "TOEIC LR Kinnojyukugo_02_655"
    INDEX 01 20:25:09
  TRACK 656 AUDIO
    TITLE "TOEIC LR Kinnojyukugo_02_656"
    INDEX 01 20:25:48
  TRACK 657 AUDIO
    TITLE "TOEIC LR Kinnojyukugo_02_657"
    INDEX 01 20:29:07
  TRACK 658 AUDIO
    TITLE "TOEIC LR Kinnojyukugo_02_658"
    INDEX 01 20:33:07
  TRACK 659 AUDIO
    TITLE "TOEIC LR Kinnojyukugo_02_659"
    INDEX 01 20:33:44
  TRACK 660 AUDIO
    TITLE "TOEIC LR Kinnojyukugo_02_660"
    INDEX 01 20:36:38
  TRACK 661 AUDIO
    TITLE "TOEIC LR Kinnojyukugo_02_661"
    INDEX 01 20:40:11
  TRACK 662 AUDIO
    TITLE "TOEIC LR Kinnojyukugo_02_662"
    INDEX 01 20:40:62
  TRACK 663 AUDIO
    TITLE "TOEIC LR Kinnojyukugo_02_663"
    INDEX 01 20:43:56
  TRACK 664 AUDIO
    TITLE "TOEIC LR Kinnojyukugo_02_664"
    INDEX 01 20:47:28
  TRACK 665 AUDIO
    TITLE "TOEIC LR Kinnojyukugo_02_665"
    INDEX 01 20:48:30
  TRACK 666 AUDIO
    TITLE "TOEIC LR Kinnojyukugo_02_666"
    INDEX 01 20:49:43
  TRACK 667 AUDIO
    TITLE "TOEIC LR Kinnojyukugo_02_667"
    INDEX 01 20:50:07
  TRACK 668 AUDIO
    TITLE "TOEIC LR Kinnojyukugo_02_668"
    INDEX 01 20:53:43
  TRACK 669 AUDIO
    TITLE "TOEIC LR Kinnojyukugo_02_669"
    INDEX 01 20:54:07
  TRACK 670 AUDIO
    TITLE "TOEIC LR Kinnojyukugo_02_670"
    INDEX 01 20:56:06
  TRACK 671 AUDIO
    TITLE "TOEIC LR Kinnojyukugo_02_671"
    INDEX 01 20:58:42
  TRACK 672 AUDIO
    TITLE "TOEIC LR Kinnojyukugo_02_672"
    INDEX 01 20:59:06
  TRACK 673 AUDIO
    TITLE "TOEIC LR Kinnojyukugo_02_673"
    INDEX 01 21:00:51
  TRACK 674 AUDIO
    TITLE "TOEIC LR Kinnojyukugo_02_674"
    INDEX 01 21:02:67
  TRACK 675 AUDIO
    TITLE "TOEIC LR Kinnojyukugo_02_675"
    INDEX 01 21:03:45
  TRACK 676 AUDIO
    TITLE "TOEIC LR Kinnojyukugo_02_676"
    INDEX 01 21:05:15
  TRACK 677 AUDIO
    TITLE "TOEIC LR Kinnojyukugo_02_677"
    INDEX 01 21:07:35
  TRACK 678 AUDIO
    TITLE "TOEIC LR Kinnojyukugo_02_678"
    INDEX 01 21:08:35
  TRACK 679 AUDIO
    TITLE "TOEIC LR Kinnojyukugo_02_679"
    INDEX 01 21:09:71
  TRACK 680 AUDIO
    TITLE "TOEIC LR Kinnojyukugo_02_680"
    INDEX 01 21:10:33
  TRACK 681 AUDIO
    TITLE "TOEIC LR Kinnojyukugo_02_681"
    INDEX 01 21:11:51
  TRACK 682 AUDIO
    TITLE "TOEIC LR Kinnojyukugo_02_682"
    INDEX 01 21:12:15
  TRACK 683 AUDIO
    TITLE "TOEIC LR Kinnojyukugo_02_683"
    INDEX 01 21:14:67
  TRACK 684 AUDIO
    TITLE "TOEIC LR Kinnojyukugo_02_684"
    INDEX 01 21:16:05
  TRACK 685 AUDIO
    TITLE "TOEIC LR Kinnojyukugo_02_685"
    INDEX 01 21:16:46
  TRACK 686 AUDIO
    TITLE "TOEIC LR Kinnojyukugo_02_686"
    INDEX 01 21:18:47
  TRACK 687 AUDIO
    TITLE "TOEIC LR Kinnojyukugo_02_687"
    INDEX 01 21:20:02
  TRACK 688 AUDIO
    TITLE "TOEIC LR Kinnojyukugo_02_688"
    INDEX 01 21:20:55
  TRACK 689 AUDIO
    TITLE "TOEIC LR Kinnojyukugo_02_689"
    INDEX 01 21:22:54
  TRACK 690 AUDIO
    TITLE "TOEIC LR Kinnojyukugo_02_690"
    INDEX 01 21:24:10
  TRACK 691 AUDIO
    TITLE "TOEIC LR Kinnojyukugo_02_691"
    INDEX 01 21:25:09
  TRACK 692 AUDIO
    TITLE "TOEIC LR Kinnojyukugo_02_692"
    INDEX 01 21:27:18
  TRACK 693 AUDIO
    TITLE "TOEIC LR Kinnojyukugo_02_693"
    INDEX 01 21:27:57
  TRACK 694 AUDIO
    TITLE "TOEIC LR Kinnojyukugo_02_694"
    INDEX 01 21:30:28
  TRACK 695 AUDIO
    TITLE "TOEIC LR Kinnojyukugo_02_695"
    INDEX 01 21:30:67
  TRACK 696 AUDIO
    TITLE "TOEIC LR Kinnojyukugo_02_696"
    INDEX 01 21:33:05
  TRACK 697 AUDIO
    TITLE "TOEIC LR Kinnojyukugo_02_697"
    INDEX 01 21:41:09
  TRACK 698 AUDIO
    TITLE "TOEIC LR Kinnojyukugo_02_698"
    INDEX 01 21:41:48
  TRACK 699 AUDIO
    TITLE "TOEIC LR Kinnojyukugo_02_699"
    INDEX 01 21:43:54
  TRACK 700 AUDIO
    TITLE "TOEIC LR Kinnojyukugo_02_700"
    INDEX 01 21:50:45
  TRACK 701 AUDIO
    TITLE "TOEIC LR Kinnojyukugo_02_701"
    INDEX 01 21:51:21
  TRACK 702 AUDIO
    TITLE "TOEIC LR Kinnojyukugo_02_702"
    INDEX 01 21:53:27
  TRACK 703 AUDIO
    TITLE "TOEIC LR Kinnojyukugo_02_703"
    INDEX 01 22:00:16
  TRACK 704 AUDIO
    TITLE "TOEIC LR Kinnojyukugo_02_704"
    INDEX 01 22:01:13
  TRACK 705 AUDIO
    TITLE "TOEIC LR Kinnojyukugo_02_705"
    INDEX 01 22:02:32
  TRACK 706 AUDIO
    TITLE "TOEIC LR Kinnojyukugo_02_706"
    INDEX 01 22:02:69
  TRACK 707 AUDIO
    TITLE "TOEIC LR Kinnojyukugo_02_707"
    INDEX 01 22:06:24
  TRACK 708 AUDIO
    TITLE "TOEIC LR Kinnojyukugo_02_708"
    INDEX 01 22:06:63
  TRACK 709 AUDIO
    TITLE "TOEIC LR Kinnojyukugo_02_709"
    INDEX 01 22:10:61
  TRACK 710 AUDIO
    TITLE "TOEIC LR Kinnojyukugo_02_710"
    INDEX 01 22:14:43
  TRACK 711 AUDIO
    TITLE "TOEIC LR Kinnojyukugo_02_711"
    INDEX 01 22:15:09
  TRACK 712 AUDIO
    TITLE "TOEIC LR Kinnojyukugo_02_712"
    INDEX 01 22:19:21
  TRACK 713 AUDIO
    TITLE "TOEIC LR Kinnojyukugo_02_713"
    INDEX 01 22:24:02
  TRACK 714 AUDIO
    TITLE "TOEIC LR Kinnojyukugo_02_714"
    INDEX 01 22:24:55
  TRACK 715 AUDIO
    TITLE "TOEIC LR Kinnojyukugo_02_715"
    INDEX 01 22:28:67
  TRACK 716 AUDIO
    TITLE "TOEIC LR Kinnojyukugo_02_716"
    INDEX 01 22:33:46
  TRACK 717 AUDIO
    TITLE "TOEIC LR Kinnojyukugo_02_717"
    INDEX 01 22:34:46
  TRACK 718 AUDIO
    TITLE "TOEIC LR Kinnojyukugo_02_718"
    INDEX 01 22:36:13
  TRACK 719 AUDIO
    TITLE "TOEIC LR Kinnojyukugo_02_719"
    INDEX 01 22:36:53
  TRACK 720 AUDIO
    TITLE "TOEIC LR Kinnojyukugo_02_720"
    INDEX 01 22:37:72
  TRACK 721 AUDIO
    TITLE "TOEIC LR Kinnojyukugo_02_721"
    INDEX 01 22:38:38
  TRACK 722 AUDIO
    TITLE "TOEIC LR Kinnojyukugo_02_722"
    INDEX 01 22:43:57
  TRACK 723 AUDIO
    TITLE "TOEIC LR Kinnojyukugo_02_723"
    INDEX 01 22:48:50
  TRACK 724 AUDIO
    TITLE "TOEIC LR Kinnojyukugo_02_724"
    INDEX 01 22:49:14
  TRACK 725 AUDIO
    TITLE "TOEIC LR Kinnojyukugo_02_725"
    INDEX 01 22:53:34
  TRACK 726 AUDIO
    TITLE "TOEIC LR Kinnojyukugo_02_726"
    INDEX 01 22:58:50
  TRACK 727 AUDIO
    TITLE "TOEIC LR Kinnojyukugo_02_727"
    INDEX 01 22:59:26
  TRACK 728 AUDIO
    TITLE "TOEIC LR Kinnojyukugo_02_728"
    INDEX 01 23:03:48
  TRACK 729 AUDIO
    TITLE "TOEIC LR Kinnojyukugo_02_729"
    INDEX 01 23:08:57
  TRACK 730 AUDIO
    TITLE "TOEIC LR Kinnojyukugo_02_730"
    INDEX 01 23:09:64
  TRACK 731 AUDIO
    TITLE "TOEIC LR Kinnojyukugo_02_731"
    INDEX 01 23:11:16
  TRACK 732 AUDIO
    TITLE "TOEIC LR Kinnojyukugo_02_732"
    INDEX 01 23:11:51
  TRACK 733 AUDIO
    TITLE "TOEIC LR Kinnojyukugo_02_733"
    INDEX 01 23:12:50
  TRACK 734 AUDIO
    TITLE "TOEIC LR Kinnojyukugo_02_734"
    INDEX 01 23:13:13
  TRACK 735 AUDIO
    TITLE "TOEIC LR Kinnojyukugo_02_735"
    INDEX 01 23:17:12
  TRACK 736 AUDIO
    TITLE "TOEIC LR Kinnojyukugo_02_736"
    INDEX 01 23:21:08
  TRACK 737 AUDIO
    TITLE "TOEIC LR Kinnojyukugo_02_737"
    INDEX 01 23:21:47
  TRACK 738 AUDIO
    TITLE "TOEIC LR Kinnojyukugo_02_738"
    INDEX 01 23:24:75
  TRACK 739 AUDIO
    TITLE "TOEIC LR Kinnojyukugo_02_739"
    INDEX 01 23:29:41
  TRACK 740 AUDIO
    TITLE "TOEIC LR Kinnojyukugo_02_740"
    INDEX 01 23:30:17
  TRACK 741 AUDIO
    TITLE "TOEIC LR Kinnojyukugo_02_741"
    INDEX 01 23:33:45
  TRACK 742 AUDIO
    TITLE "TOEIC LR Kinnojyukugo_02_742"
    INDEX 01 23:38:11
  TRACK 743 AUDIO
    TITLE "TOEIC LR Kinnojyukugo_02_743"
    INDEX 01 23:39:12
  TRACK 744 AUDIO
    TITLE "TOEIC LR Kinnojyukugo_02_744"
    INDEX 01 23:40:57
  TRACK 745 AUDIO
    TITLE "TOEIC LR Kinnojyukugo_02_745"
    INDEX 01 23:41:19
  TRACK 746 AUDIO
    TITLE "TOEIC LR Kinnojyukugo_02_746"
    INDEX 01 23:44:05
  TRACK 747 AUDIO
    TITLE "TOEIC LR Kinnojyukugo_02_747"
    INDEX 01 23:44:49
  TRACK 748 AUDIO
    TITLE "TOEIC LR Kinnojyukugo_02_748"
    INDEX 01 23:47:37
  TRACK 749 AUDIO
    TITLE "TOEIC LR Kinnojyukugo_02_749"
    INDEX 01 23:53:12
  TRACK 750 AUDIO
    TITLE "TOEIC LR Kinnojyukugo_02_750"
    INDEX 01 23:53:47
  TRACK 751 AUDIO
    TITLE "TOEIC LR Kinnojyukugo_02_751"
    INDEX 01 23:55:64
  TRACK 752 AUDIO
    TITLE "TOEIC LR Kinnojyukugo_02_752"
    INDEX 01 24:00:08
  TRACK 753 AUDIO
    TITLE "TOEIC LR Kinnojyukugo_02_753"
    INDEX 01 24:00:69
  TRACK 754 AUDIO
    TITLE "TOEIC LR Kinnojyukugo_02_754"
    INDEX 01 24:03:09
  TRACK 755 AUDIO
    TITLE "TOEIC LR Kinnojyukugo_02_755"
    INDEX 01 24:07:26
  TRACK 756 AUDIO
    TITLE "TOEIC LR Kinnojyukugo_02_756"
    INDEX 01 24:08:31
  TRACK 757 AUDIO
    TITLE "TOEIC LR Kinnojyukugo_02_757"
    INDEX 01 24:09:64
  TRACK 758 AUDIO
    TITLE "TOEIC LR Kinnojyukugo_02_758"
    INDEX 01 24:10:26
  TRACK 759 AUDIO
    TITLE "TOEIC LR Kinnojyukugo_02_759"
    INDEX 01 24:11:57
  TRACK 760 AUDIO
    TITLE "TOEIC LR Kinnojyukugo_02_760"
    INDEX 01 24:12:21
  TRACK 761 AUDIO
    TITLE "TOEIC LR Kinnojyukugo_02_761"
    INDEX 01 24:15:22
  TRACK 762 AUDIO
    TITLE "TOEIC LR Kinnojyukugo_02_762"
    INDEX 01 24:16:50
  TRACK 763 AUDIO
    TITLE "TOEIC LR Kinnojyukugo_02_763"
    INDEX 01 24:17:15
  TRACK 764 AUDIO
    TITLE "TOEIC LR Kinnojyukugo_02_764"
    INDEX 01 24:19:37
  TRACK 765 AUDIO
    TITLE "TOEIC LR Kinnojyukugo_02_765"
    INDEX 01 24:20:68
  TRACK 766 AUDIO
    TITLE "TOEIC LR Kinnojyukugo_02_766"
    INDEX 01 24:21:44
  TRACK 767 AUDIO
    TITLE "TOEIC LR Kinnojyukugo_02_767"
    INDEX 01 24:23:66
  TRACK 768 AUDIO
    TITLE "TOEIC LR Kinnojyukugo_02_768"
    INDEX 01 24:25:24
  TRACK 769 AUDIO
    TITLE "TOEIC LR Kinnojyukugo_02_769"
    INDEX 01 24:26:21
  TRACK 770 AUDIO
    TITLE "TOEIC LR Kinnojyukugo_02_770"
    INDEX 01 24:27:27
  TRACK 771 AUDIO
    TITLE "TOEIC LR Kinnojyukugo_02_771"
    INDEX 01 24:27:64
  TRACK 772 AUDIO
    TITLE "TOEIC LR Kinnojyukugo_02_772"
    INDEX 01 24:28:71
  TRACK 773 AUDIO
    TITLE "TOEIC LR Kinnojyukugo_02_773"
    INDEX 01 24:29:35
  TRACK 774 AUDIO
    TITLE "TOEIC LR Kinnojyukugo_02_774"
    INDEX 01 24:31:56
  TRACK 775 AUDIO
    TITLE "TOEIC LR Kinnojyukugo_02_775"
    INDEX 01 24:33:37
  TRACK 776 AUDIO
    TITLE "TOEIC LR Kinnojyukugo_02_776"
    INDEX 01 24:33:72
  TRACK 777 AUDIO
    TITLE "TOEIC LR Kinnojyukugo_02_777"
    INDEX 01 24:36:10
  TRACK 778 AUDIO
    TITLE "TOEIC LR Kinnojyukugo_02_778"
    INDEX 01 24:37:39
  TRACK 779 AUDIO
    TITLE "TOEIC LR Kinnojyukugo_02_779"
    INDEX 01 24:38:13
  TRACK 780 AUDIO
    TITLE "TOEIC LR Kinnojyukugo_02_780"
    INDEX 01 24:40:27
  TRACK 781 AUDIO
    TITLE "TOEIC LR Kinnojyukugo_02_781"
    INDEX 01 24:41:56
